/* XPM */
static char *close_inactive[] = {
/* columns rows colors chars-per-pixel */
"24 24 26 1 ",
"  c #2F2F2F",
". c #353535",
"X c gray21",
"o c #373737",
"O c gray24",
"+ c gray29",
"@ c #4B4B4B",
"# c #5A5A5A",
"$ c #5B5B5B",
"% c gray37",
"& c gray38",
"* c #626262",
"= c #646464",
"- c #656565",
"; c #767676",
": c #777777",
"> c #7C7C7C",
", c gray49",
"< c #7E7E7E",
"1 c gray52",
"2 c #868686",
"3 c gray56",
"4 c #909090",
"5 c gray57",
"6 c #939393",
"7 c gray58",
/* pixels */
"oooooooooooooooooooooooo",
"                        ",
"                        ",
"                        ",
"                        ",
"        X$:<<;$X        ",
"       @,247742,+       ",
"      @<57777775<+      ",
"     X,5777777775>X     ",
"     $277.=77=O772#     ",
"     ;477= ** =773;     ",
"     <6777-  &7776<     ",
"     <6777*  %7776<     ",
"     :477= ** =774;     ",
"     $277.=77=.771#     ",
"     X,5777777774>.     ",
"      +<47777774<+      ",
"       +,246632>+       ",
"        X#;<<;#.        ",
"                        ",
"                        ",
"                        ",
"                        ",
"                        "
};
