/* XPM */
static char *close_pressed[] = {
/* columns rows colors chars-per-pixel */
"24 24 39 1 ",
"  c #2F2F2F",
". c #333531",
"X c #353535",
"o c gray21",
"O c #373737",
"+ c #393E34",
"@ c #4F5F3F",
"# c #494A49",
"$ c gray29",
"% c #4A4B4A",
"& c #595A59",
"* c #5A5B59",
"= c #516240",
"- c #526340",
"; c #536541",
": c #546641",
"> c #747672",
", c #757673",
"< c #757773",
"1 c #7B7E79",
"2 c #7B7D7A",
"3 c #7C7E79",
"4 c #7C7D7B",
"5 c #7C7E7A",
"6 c #7D7E7C",
"7 c #7D7E7D",
"8 c #7E7E7D",
"9 c #749651",
"0 c #759553",
"q c #759554",
"w c #759654",
"e c #76915B",
"r c #77915B",
"t c #76925A",
"y c #77925A",
"u c #77915C",
"i c #77925C",
"p c #79866B",
"a c #79876B",
/* pixels */
"OOOOOOOOOOOOOOOOoooOOOOO",
"                        ",
"                        ",
"                        ",
"                        ",
"        O*>77>&O        ",
"       %1puwwya4%       ",
"      %1y999999y2%      ",
"     O4y99999999r2O     ",
"     &p99.;99;+99a&     ",
"     >y99; -- ;99r>     ",
"     7w999:  -99907     ",
"     7w999-  =99902     ",
"     ,u99; -- -99e>     ",
"     &p99.;99;.99a&     ",
"     o1y99999999y2X     ",
"      %4y999999y4%      ",
"       %2ae00ua2#       ",
"        O&>77>&X        ",
"                        ",
"                        ",
"                        ",
"                        ",
"                        "
};
