/* XPM */
static char *close_prelight[] = {
/* columns rows colors chars-per-pixel */
"24 24 46 1 ",
"  c #2F2F2F",
". c #353535",
"X c gray21",
"o c #373737",
"O c #363833",
"+ c #3E4438",
"@ c #4A4A49",
"# c gray29",
"$ c #4B4B4A",
"% c #5A5A59",
"& c #5A5B59",
"* c #5B5C5A",
"= c #61754C",
"- c #647A4E",
"; c #657B4F",
": c #677D50",
"> c #677E50",
", c #767873",
"< c #767974",
"1 c #777974",
"2 c #777A74",
"3 c #777A75",
"4 c #7D7E7B",
"5 c #7D7F7C",
"6 c #7E7F7D",
"7 c #7E7F7E",
"8 c #7F7F7E",
"9 c #688051",
"0 c #7E817B",
"q c #7F827B",
"w c #7F827C",
"e c #879876",
"r c #889977",
"t c #889A76",
"y c #889A77",
"u c #889B77",
"i c #94B672",
"p c #94B772",
"a c #95B772",
"s c #95B871",
"d c #95B971",
"f c #95B972",
"g c #96BA72",
"h c #99C26F",
"j c #99C36F",
"k c #9AC66E",
/* pixels */
"oooooooooooooooooooooooo",
"                        ",
"                        ",
"                        ",
"         .              ",
"        .*<66<&o        ",
"       $4epjjpt6$       ",
"      $0dkkkkkkd6@      ",
"     o0dkkkkkkkkd6o     ",
"     *ykkO>kk>+kkt&     ",
"     1pkk; ;; >kkp,     ",
"     8jkkk9  -kkkj6     ",
"     6jkkk:  =kkkh8     ",
"     <pkk: -; >kja1     ",
"     &tkkO>kk>Okgr%     ",
"     o4pkkkkkkkki4      ",
"      $0pkkkkkkpe#      ",
"       $6ypjjpe4#       ",
"        X&<66,&o        ",
"                        ",
"                        ",
"                        ",
"                        ",
"                        "
};
