/* XPM */
static char *close_active[] = {
/* columns rows colors chars-per-pixel */
"24 24 41 1 ",
"  c #2F2F2F",
". c #353535",
"X c gray21",
"o c #373737",
"O c #363834",
"+ c #3E423A",
"@ c #4A4A49",
"# c gray29",
"$ c #4B4B4A",
"% c #5A5A59",
"& c #5B5B5A",
"* c #616F53",
"= c #647355",
"- c #657456",
"; c #677657",
": c #677757",
"> c #687858",
", c #767874",
"< c #767875",
"1 c #777875",
"2 c #777975",
"3 c #7D7E7C",
"4 c #7D7F7C",
"5 c #7E7F7D",
"6 c #7E7F7E",
"7 c #7F7F7E",
"8 c #7E807C",
"9 c #7F817C",
"0 c #7F817D",
"q c #87937C",
"w c #88937C",
"e c #88947C",
"r c #94AB7D",
"t c #94AC7D",
"y c #95AC7D",
"u c #95AD7D",
"i c #95AE7D",
"p c #96AE7D",
"a c #99B57C",
"s c #99B67D",
"d c #9AB87C",
/* pixels */
"oooooooooooooooooooooooo",
"                        ",
"                        ",
"                        ",
"                        ",
"        o&<85<%o        ",
"       $5qtaaue5$       ",
"      $8uddddddu3$      ",
"     o8uddddddddu3o     ",
"     &eddO:dd:+ddq%     ",
"     <udd: := :ddr,     ",
"     7addd>  =dddd5     ",
"     8adda=  *addd3     ",
"     2uad: := :ddr,     ",
"     %eddO:da:Oddq%     ",
"     o5uddddddddr3.     ",
"      $8uadddddu8$      ",
"       $5quaarq3$       ",
"        o%<55<%o        ",
"                        ",
"                        ",
"                        ",
"                        ",
"                        "
};
