/* XPM */
static char *hide_prelight[] = {
/* columns rows colors chars-per-pixel */
"24 24 17 1 ",
"  c #282828",
". c gray16",
"X c #2A2A2A",
"o c gray17",
"O c #2C2C2C",
"+ c #2D2D2D",
"@ c gray18",
"# c #2F2F2F",
"$ c #353535",
"% c gray21",
"& c #373737",
"* c #444444",
"= c gray27",
"- c gray29",
"; c #4B4B4B",
": c #4C4C4C",
"> c gray77",
/* pixels */
"&&&&&&&&&&&&&&&&&&&&&&&&",
"########################",
"########################",
"########################",
"########################",
"########@oo  oo@########",
"#######O.%*;;*%.+#######",
"######Oo=::::::*X+######",
"#####@.=::::::::*.@#####",
"#####o%::::::::::$O#####",
"#####X*::::::::::*o#####",
"##### -::>>>>>>::- #####",
"##### -::>>>>>>::- #####",
"#####o*::::::::::*o#####",
"#####o%::::::::::%O#####",
"#####@.*::::::::=.@#####",
"######+X=::::::=XO######",
"#######+.$*--*%.O#######",
"########@OX  XO@########",
"########################",
"########################",
"########################",
"########################",
"########################"
};
