/* XPM */
static char *maximize_pressed[] = {
/* columns rows colors chars-per-pixel */
"24 24 28 1 ",
"  c gray16",
". c #2A2A2A",
"X c gray17",
"o c #2C2C2C",
"O c #2D2D2D",
"+ c gray18",
"@ c #2F2F2F",
"# c gray19",
"$ c #373737",
"% c gray32",
"& c #535353",
"* c #7B7B7B",
"= c #7C7C7C",
"- c gray49",
"; c gray50",
": c #808080",
"> c #8E8E8E",
", c gray56",
"< c #909090",
"1 c gray58",
"2 c #959595",
"3 c gray59",
"4 c #979797",
"5 c #DADADA",
"6 c #DDDDDD",
"7 c gray88",
"8 c #EAEAEA",
"9 c white",
/* pixels */
"$$$$$$$$$$$$$$$$$$$$$$$$",
"@@@@@@@@@@@@@@@@@@@@@@@@",
"@@@@@@@@@@@@@@@@@@@@@@@@",
"@@@@@@@@@@@@@@@@@@@@@@@@",
"@@@@@@@@@@@@@@@@@@@@@@@@",
"@@@@@@@@+O@  @O+@@@@@@@@",
"@@@@@@@OX&-<<=&XO@@@@@@@",
"@@@@@@O#:111111;@O@@@@@@",
"@@@@@+X:11111111;X+@@@@@",
"@@@@@O&1113699811%O@@@@@",
"@@@@@+-1131369911=@@@@@@",
"@@@@@ ,1174125911,.@@@@@",
"@@@@@.,1197412511>.@@@@@",
"@@@@@@=1199631311=@@@@@@",
"@@@@@O&1189963111%O@@@@@",
"@@@@@+o;11111111;X+@@@@@",
"@@@@@@O@;111111;@O@@@@@@",
"@@@@@@@Oo%=,,*%XO@@@@@@@",
"@@@@@@@@+O+  +O+@@@@@@@@",
"@@@@@@@@@@@@@@@@@@@@@@@@",
"@@@@@@@@@@@@@@@@@@@@@@@@",
"@@@@@@@@@@@@@@@@@@@@@@@@",
"@@@@@@@@@@@@@@@@@@@@@@@@",
"@@@@@@@@@@@@@@@@@@@@@@@@"
};
