/* XPM */
static char *maximize_inactive[] = {
/* columns rows colors chars-per-pixel */
"24 24 9 1 ",
"  c #2F2F2F",
". c gray19",
"X c #313131",
"o c #373737",
"O c #535353",
"+ c gray33",
"@ c #565656",
"# c #5B5B5B",
"$ c gray40",
/* pixels */
"oooooooooooooooooooooooo",
"                        ",
"                        ",
"                        ",
"                        ",
"                        ",
"                        ",
"                        ",
"                        ",
"          .+$$#         ",
"         . .+$$         ",
"         @X  O$         ",
"         $@X  O         ",
"         $$+. .         ",
"         #$$+.          ",
"                        ",
"                        ",
"                        ",
"                        ",
"                        ",
"                        ",
"                        ",
"                        ",
"                        "
};
