/* XPM */
static char *maximize_prelight[] = {
/* columns rows colors chars-per-pixel */
"24 24 23 1 ",
"  c #282828",
". c gray16",
"X c #2A2A2A",
"o c gray17",
"O c #2C2C2C",
"+ c #2D2D2D",
"@ c gray18",
"# c #2F2F2F",
"$ c #353535",
"% c gray21",
"& c #373737",
"* c #444444",
"= c gray27",
"- c gray29",
"; c #4B4B4B",
": c #4C4C4C",
"> c gray30",
", c gray31",
"< c #9A9A9A",
"1 c #9D9D9D",
"2 c #A0A0A0",
"3 c #ACACAC",
"4 c gray77",
/* pixels */
"&&&&&&&&&&&&&&&&&&&&&&&&",
"########################",
"########################",
"########################",
"########################",
"########@oo  oo@########",
"#######O.%*;;*%.+#######",
"######Oo=::::::*X+######",
"#####@.=::::::::*.@#####",
"#####o%:::,1443::$O#####",
"#####X*::,:,144::*o#####",
"##### -::2,:><4::- #####",
"##### -::42,:><::- #####",
"#####o*::441,:,::*o#####",
"#####o%::3441,:::%O#####",
"#####@.*::::::::=.@#####",
"######+X=::::::=XO######",
"#######+.$*--*%.O#######",
"########@OX  XO@########",
"########################",
"########################",
"########################",
"########################",
"########################"
};
