/* XPM */
static char *maximize_active[] = {
/* columns rows colors chars-per-pixel */
"24 24 10 1 ",
"  c #2F2F2F",
". c gray19",
"X c #313131",
"o c #323232",
"O c #373737",
"+ c gray43",
"@ c #717171",
"# c #747474",
"$ c #7C7C7C",
"% c #909090",
/* pixels */
"OOOOOOOOOOOOOOOOOOOOOOOO",
"                        ",
"                        ",
"                        ",
"                        ",
"                        ",
"                        ",
"                        ",
"                        ",
"          X@%%$         ",
"         X X@%%         ",
"         #o .+%         ",
"         %#o .+         ",
"         %%@X X         ",
"         $%%@X          ",
"                        ",
"                        ",
"                        ",
"                        ",
"                        ",
"                        ",
"                        ",
"                        ",
"                        "
};
