/* XPM */
static char *menu_inactive[] = {
/* columns rows colors chars-per-pixel */
"24 24 15 1 ",
"  c #2F2F2F",
". c #323232",
"X c #373737",
"o c #3A3A3A",
"O c gray23",
"+ c gray24",
"@ c gray28",
"# c #484848",
"$ c #515151",
"% c #535353",
"& c #5D5D5D",
"* c gray37",
"= c #606060",
"- c #656565",
"; c gray40",
/* pixels */
"XXXXXXXXXXXXXXXXXXXXXXXX",
"                        ",
"                        ",
"                        ",
"                        ",
"                        ",
"                        ",
"                        ",
"                        ",
"                        ",
"        $&o  o*$        ",
"        @;-##-;@        ",
"         O*;;=+         ",
"          .%%.          ",
"                        ",
"                        ",
"                        ",
"                        ",
"                        ",
"                        ",
"                        ",
"                        ",
"                        ",
"                        "
};
