/* XPM */
static char *menu_pressed[] = {
/* columns rows colors chars-per-pixel */
"24 24 35 1 ",
"  c gray16",
". c #2A2A2A",
"X c gray17",
"o c #2C2C2C",
"O c #2D2D2D",
"+ c gray18",
"@ c #2F2F2F",
"# c gray19",
"$ c #373737",
"% c gray32",
"& c #535353",
"* c #7B7B7B",
"= c #7C7C7C",
"- c gray49",
"; c gray50",
": c #808080",
"> c #8E8E8E",
", c gray56",
"< c #909090",
"1 c gray58",
"2 c #9A9A9A",
"3 c #A9A9A9",
"4 c gray67",
"5 c #AEAEAE",
"6 c #C3C3C3",
"7 c #C5C5C5",
"8 c gray84",
"9 c gray85",
"0 c gray93",
"q c #EEEEEE",
"w c gray94",
"e c gray95",
"r c gray99",
"t c #FEFEFE",
"y c white",
/* pixels */
"$$$$$$$$$$$$$$$$$$$$$$$$",
"@@@@@@@@@@@@@@@@@@@@@@@@",
"@@@@@@@@@@@@@@@@@@@@@@@@",
"@@@@@@@@@@@@@@@@@@@@@@@@",
"@@@@@@@@@@@@@@@@@@@@@@@@",
"@@@@@@@@+O@  @O+@@@@@@@@",
"@@@@@@@OX&-<<=&XO@@@@@@@",
"@@@@@@O#:111111;@O@@@@@@",
"@@@@@+X:11111111;X+@@@@@",
"@@@@@O&1111111111%O@@@@@",
"@@@@@+-1803113q81=@@@@@@",
"@@@@@ ,16tr77rt61,.@@@@@",
"@@@@@.,114wyye511>.@@@@@",
"@@@@@@=1112992111=@@@@@@",
"@@@@@O&1111111111%O@@@@@",
"@@@@@+o;11111111;X+@@@@@",
"@@@@@@O@;111111;@O@@@@@@",
"@@@@@@@Oo%=,,*%XO@@@@@@@",
"@@@@@@@@+O+  +O+@@@@@@@@",
"@@@@@@@@@@@@@@@@@@@@@@@@",
"@@@@@@@@@@@@@@@@@@@@@@@@",
"@@@@@@@@@@@@@@@@@@@@@@@@",
"@@@@@@@@@@@@@@@@@@@@@@@@",
"@@@@@@@@@@@@@@@@@@@@@@@@"
};
