/* XPM */
static char *menu_active[] = {
/* columns rows colors chars-per-pixel */
"24 24 17 1 ",
"  c #2F2F2F",
". c #343434",
"X c #373737",
"o c gray26",
"O c gray27",
"+ c gray28",
"@ c #5A5A5A",
"# c #5B5B5B",
"$ c gray42",
"% c gray43",
"& c #808080",
"* c #818181",
"= c gray51",
"- c gray52",
"; c #8E8E8E",
": c gray56",
"> c #909090",
/* pixels */
"XXXXXXXXXXXXXXXXXXXXXXXX",
"                        ",
"                        ",
"                        ",
"                        ",
"                        ",
"                        ",
"                        ",
"                        ",
"                        ",
"        $&o  o*$        ",
"        @:;##;:@        ",
"         O=>>-+         ",
"          .%%.          ",
"                        ",
"                        ",
"                        ",
"                        ",
"                        ",
"                        ",
"                        ",
"                        ",
"                        ",
"                        "
};
