/* XPM */
static char *shade_active[] = {
/* columns rows colors chars-per-pixel */
"24 24 20 1 ",
"  c #2F2F2F",
". c #343434",
"X c gray21",
"o c #373737",
"O c gray26",
"+ c gray27",
"@ c gray28",
"# c gray35",
"$ c #5A5A5A",
"% c #6A6A6A",
"& c gray42",
"* c #6C6C6C",
"= c gray44",
"- c #797979",
"; c #808080",
": c gray51",
"> c gray52",
", c #8D8D8D",
"< c gray56",
"1 c #909090",
/* pixels */
"oooooooooooooooooooooooo",
"                        ",
"                        ",
"                        ",
"                        ",
"                        ",
"                        ",
"                        ",
"          .*=X          ",
"         +:11>@         ",
"        $<,11,<#        ",
"        &;O11O;%        ",
"           11           ",
"           11           ",
"           11           ",
"           --           ",
"                        ",
"                        ",
"                        ",
"                        ",
"                        ",
"                        ",
"                        ",
"                        "
};
