/* XPM */
static char *shade_toggled_prelight[] = {
/* columns rows colors chars-per-pixel */
"24 24 32 1 ",
"  c #282828",
". c gray16",
"X c #2A2A2A",
"o c gray17",
"O c #2C2C2C",
"+ c #2D2D2D",
"@ c gray18",
"# c #2F2F2F",
"$ c #353535",
"% c gray21",
"& c #373737",
"* c #444444",
"= c gray27",
"- c gray29",
"; c #4B4B4B",
": c #4C4C4C",
"> c gray33",
", c gray39",
"< c gray40",
"1 c #6A6A6A",
"2 c #808080",
"3 c #818181",
"4 c gray59",
"5 c gray60",
"6 c gray66",
"7 c gray69",
"8 c #B1B1B1",
"9 c gray70",
"0 c #B6B6B6",
"q c #C1C1C1",
"w c #C3C3C3",
"e c gray77",
/* pixels */
"&&&&&&&&&&&&&&&&&&&&&&&&",
"########################",
"########################",
"########################",
"########################",
"########@oo  oo@########",
"#######O.%*;;*%.+#######",
"######Oo=::::::*X+######",
"#####@.=:::66:::*.@#####",
"#####o%::::ee::::$O#####",
"#####X*::::ee::::*o#####",
"##### -::::ee::::- #####",
"##### -:48,ee,74:- #####",
"#####o*:3wqeeqw2:*o#####",
"#####o%::<9ee01::%O#####",
"#####@.*::>55>::=.@#####",
"######+X=::::::=XO######",
"#######+.$*--*%.O#######",
"########@OX  XO@########",
"########################",
"########################",
"########################",
"########################",
"########################"
};
