/* XPM */
static char *shade_inactive[] = {
/* columns rows colors chars-per-pixel */
"24 24 18 1 ",
"  c #2F2F2F",
". c #323232",
"X c gray20",
"o c #373737",
"O c #3A3A3A",
"+ c gray23",
"@ c gray24",
"# c gray28",
"$ c #505050",
"% c #515151",
"& c gray32",
"* c gray33",
"= c gray35",
"- c #5D5D5D",
"; c gray37",
": c #606060",
"> c #646464",
", c gray40",
/* pixels */
"oooooooooooooooooooooooo",
"                        ",
"                        ",
"                        ",
"                        ",
"                        ",
"                        ",
"                        ",
"          .&*X          ",
"         +;,,:@         ",
"        #,>,,>,#        ",
"        %-O,,O-$        ",
"           ,,           ",
"           ,,           ",
"           ,,           ",
"           ==           ",
"                        ",
"                        ",
"                        ",
"                        ",
"                        ",
"                        ",
"                        ",
"                        "
};
