/* XPM */
static char *shade_prelight[] = {
/* columns rows colors chars-per-pixel */
"24 24 34 1 ",
"  c #282828",
". c gray16",
"X c #2A2A2A",
"o c gray17",
"O c #2C2C2C",
"+ c #2D2D2D",
"@ c gray18",
"# c #2F2F2F",
"$ c #353535",
"% c gray21",
"& c #373737",
"* c #444444",
"= c gray27",
"- c gray29",
"; c #4B4B4B",
": c #4C4C4C",
"> c #535353",
", c gray33",
"< c gray39",
"1 c gray40",
"2 c #6A6A6A",
"3 c #818181",
"4 c #959595",
"5 c gray59",
"6 c gray60",
"7 c gray61",
"8 c #A7A7A7",
"9 c gray66",
"0 c #B1B1B1",
"q c gray70",
"w c #B6B6B6",
"e c #C1C1C1",
"r c #C3C3C3",
"t c gray77",
/* pixels */
"&&&&&&&&&&&&&&&&&&&&&&&&",
"########################",
"########################",
"########################",
"########################",
"########@oo  oo@########",
"#######O.%*;;*%.+#######",
"######Oo=::::::*X+######",
"#####@.=::>67,::*.@#####",
"#####o%::1qttw2::$O#####",
"#####X*:3retter3:*o#####",
"##### -:50<tt<04:- #####",
"##### -::::tt::::- #####",
"#####o*::::tt::::*o#####",
"#####o%::::tt::::%O#####",
"#####@.*:::98:::=.@#####",
"######+X=::::::=XO######",
"#######+.$*--*%.O#######",
"########@OX  XO@########",
"########################",
"########################",
"########################",
"########################",
"########################"
};
