/* XPM */
static char *stick_prelight[] = {
/* columns rows colors chars-per-pixel */
"24 24 31 1 ",
"  c #2F2F2F",
". c #373737",
"X c #3A3A3A",
"o c gray23",
"O c #3C3C3C",
"+ c #4C4C4C",
"@ c #515151",
"# c #535353",
"$ c gray37",
"% c #606060",
"& c #626262",
"* c gray39",
"= c gray40",
"- c #676767",
"; c #686868",
": c #7B7B7B",
"> c #7C7C7C",
", c gray56",
"< c #909090",
"1 c gray57",
"2 c #929292",
"3 c #A9A9A9",
"4 c #AAAAAA",
"5 c gray71",
"6 c #B6B6B6",
"7 c #B9B9B9",
"8 c gray73",
"9 c #BCBCBC",
"0 c gray74",
"q c gray",
"w c gray75",
/* pixels */
"........................",
"                        ",
"                        ",
"                        ",
"                        ",
"        O>4ww3>o        ",
"       %8,=@@=<8%       ",
"      %6&++++++*5%      ",
"     O8&++++++++*7o     ",
"     >,++++++++++<>     ",
"     4=++++++++++=3     ",
"     q@++++++++++@0     ",
"     0@++++++++++#9     ",
"     4=++++++++++-3     ",
"     ><++++++++++1:     ",
"     o7*++++++++*7X     ",
"      %5*++++++*5$      ",
"       %7<-@@;27$       ",
"        o>3qq3:X        ",
"                        ",
"                        ",
"                        ",
"                        ",
"                        "
};
