/* XPM */
static char *stick_toggled_active[] = {
/* columns rows colors chars-per-pixel */
"24 24 31 1 ",
"  c #2F2F2F",
". c gray20",
"X c #343434",
"o c gray21",
"O c #373737",
"+ c #3A3A3A",
"@ c #3E3E3E",
"# c #414141",
"$ c gray26",
"% c #434343",
"& c #444444",
"* c gray27",
"= c #4E4E4E",
"- c gray31",
"; c #606060",
": c gray38",
"> c #626262",
", c gray40",
"< c #676767",
"1 c #686868",
"2 c #6F6F6F",
"3 c gray44",
"4 c #727272",
"5 c gray49",
"6 c #7E7E7E",
"7 c gray52",
"8 c #888888",
"9 c #898989",
"0 c #8B8B8B",
"q c gray55",
"w c #909090",
/* pixels */
"OOOOOOOOOOOOOOOOOOOOOOOO",
"                        ",
"                        ",
"                        ",
"                        ",
"        O>6qq5:O        ",
"       -9,%..&,9-       ",
"      -7#      $7-      ",
"     O9# +3004@ $8O     ",
"     >, +9wwww9+ <;     ",
"     6% 3wwwwww3 *5     ",
"     0X 0wwwwww0 X0     ",
"     0X 0wwwwww0 X0     ",
"     6& 4wwwwww2 &5     ",
"     :, @9wwww8+ 1;     ",
"     O8$ +3002+ $8o     ",
"      -7#      $7=      ",
"       -8<&XX*18=       ",
"        O;5005;o        ",
"                        ",
"                        ",
"                        ",
"                        ",
"                        "
};
