/* XPM */
static char *stick_inactive[] = {
/* columns rows colors chars-per-pixel */
"24 24 23 1 ",
"  c #2F2F2F",
". c #313131",
"X c #323232",
"o c gray20",
"O c #343434",
"+ c #373737",
"@ c #393939",
"# c #3A3A3A",
"$ c gray23",
"% c gray25",
"& c #414141",
"* c #4B4B4B",
"= c #4C4C4C",
"- c #4E4E4E",
"; c gray31",
": c #505050",
"> c #5B5B5B",
", c gray36",
"< c #5F5F5F",
"1 c #606060",
"2 c #626262",
"3 c gray39",
"4 c #646464",
/* pixels */
"++++++++++++++++++++++++",
"                        ",
"                        ",
"                        ",
"                        ",
"        O=,44>*o        ",
"       &2-$..$-2&       ",
"      &<@      #1&      ",
"     O2@        #2o     ",
"     =-          ;*     ",
"     ,$          $>     ",
"     3X          X3     ",
"     3X          X3     ",
"     ,$          $>     ",
"     *-          ;*     ",
"     o2#        #2o     ",
"      &1@      #1%      ",
"       &2;$XX$:2%       ",
"        o*>33>*o        ",
"                        ",
"                        ",
"                        ",
"                        ",
"                        "
};
