/* XPM */
static char *stick_active[] = {
/* columns rows colors chars-per-pixel */
"24 24 25 1 ",
"  c #2F2F2F",
". c gray20",
"X c #343434",
"o c gray21",
"O c #373737",
"+ c #414141",
"@ c gray26",
"# c #434343",
"$ c #444444",
"% c gray27",
"& c #4E4E4E",
"* c gray31",
"= c #606060",
"- c gray38",
"; c #626262",
": c gray40",
"> c #676767",
", c #686868",
"< c gray49",
"1 c #7E7E7E",
"2 c gray52",
"3 c #888888",
"4 c #898989",
"5 c #8B8B8B",
"6 c gray55",
/* pixels */
"OOOOOOOOOOOOOOOOOOOOOOOO",
"                        ",
"                        ",
"                        ",
"                        ",
"        O;166<-O        ",
"       *4:#..$:4*       ",
"      *2+      @2*      ",
"     O4+        @3O     ",
"     ;:          >=     ",
"     1#          %<     ",
"     5X          X5     ",
"     5X          X5     ",
"     1$          $<     ",
"     -:          ,=     ",
"     O3@        @3o     ",
"      *2+      @2&      ",
"       *3>$XX%,3&       ",
"        O=<55<=o        ",
"                        ",
"                        ",
"                        ",
"                        ",
"                        "
};
