/* XPM */
static char *stick_toggled_inactive[] = {
/* columns rows colors chars-per-pixel */
"24 24 30 1 ",
"  c #2F2F2F",
". c #313131",
"X c #323232",
"o c gray20",
"O c #343434",
"+ c #353535",
"@ c gray21",
"# c #373737",
"$ c gray22",
"% c #393939",
"& c #3A3A3A",
"* c gray23",
"= c gray25",
"- c #414141",
"; c #4B4B4B",
": c #4C4C4C",
"> c #4E4E4E",
", c gray31",
"< c #505050",
"1 c gray33",
"2 c #555555",
"3 c #5B5B5B",
"4 c gray36",
"5 c #5F5F5F",
"6 c #606060",
"7 c gray38",
"8 c #626262",
"9 c gray39",
"0 c #646464",
"q c gray40",
/* pixels */
"########################",
"                        ",
"                        ",
"                        ",
"                        ",
"        O:4003;o        ",
"       -8>*..*>8-       ",
"      -5%      &6-      ",
"     O8% @1992$ &8o     ",
"     :> @8qqqq8@ ,;     ",
"     4* 1qqqqqq1 *3     ",
"     9X 9qqqqqq9 X9     ",
"     9X 9qqqqqq9 X9     ",
"     4* 2qqqqqq1 *3     ",
"     ;> $8qqqq7+ ,;     ",
"     o8& @1991+ &8o     ",
"      -6%      &6=      ",
"       -8,*XX*<8=       ",
"        o;3993;o        ",
"                        ",
"                        ",
"                        ",
"                        ",
"                        "
};
