/* XPM */
static char *stick_toggled_prelight[] = {
/* columns rows colors chars-per-pixel */
"24 24 38 1 ",
"  c #2F2F2F",
". c #373737",
"X c #3A3A3A",
"o c gray23",
"O c #3C3C3C",
"+ c #4C4C4C",
"@ c #515151",
"# c #535353",
"$ c gray35",
"% c #5A5A5A",
"& c gray37",
"* c #606060",
"= c #626262",
"- c gray39",
"; c gray40",
": c #676767",
"> c #686868",
", c #7B7B7B",
"< c #7C7C7C",
"1 c gray56",
"2 c #909090",
"3 c gray57",
"4 c #929292",
"5 c gray61",
"6 c #9D9D9D",
"7 c #9F9F9F",
"8 c #A9A9A9",
"9 c #AAAAAA",
"0 c gray71",
"q c #B6B6B6",
"w c #B9B9B9",
"e c gray73",
"r c #BBBBBB",
"t c #BCBCBC",
"y c gray74",
"u c gray",
"i c gray75",
"p c gray77",
/* pixels */
"........................",
"                        ",
"                        ",
"                        ",
"                        ",
"        O<9ii8<o        ",
"       *e1;@@;2e*       ",
"      *q=++++++-0*      ",
"     Oe=+$6uu7&+-wo     ",
"     <1+$rppppt$+2<     ",
"     9;+6pppppp5+;8     ",
"     u@+uppppppy+@y     ",
"     y@+uppppppt+#t     ",
"     9;+7pppppp5+:8     ",
"     <2+&tppppr%+3,     ",
"     ow-+$5yy5%+-wX     ",
"      *0-++++++-0&      ",
"       *w2:@@>4w&       ",
"        o<8uu8,X        ",
"                        ",
"                        ",
"                        ",
"                        ",
"                        "
};
