/* XPM */
static char *title_3_inactive[] = {
/* columns rows colors chars-per-pixel */
"24 24 2 1 ",
"  c #2F2F2F",
". c #373737",
/* pixels */
"........................",
"                        ",
"                        ",
"                        ",
"                        ",
"                        ",
"                        ",
"                        ",
"                        ",
"                        ",
"                        ",
"                        ",
"                        ",
"                        ",
"                        ",
"                        ",
"                        ",
"                        ",
"                        ",
"                        ",
"                        ",
"                        ",
"                        ",
"                        "
};
