/* XPM */
static char *top_left_active[] = {
/* columns rows colors chars-per-pixel */
"5 24 3 1 ",
"  c #2F2F2F",
". c #373737",
"X c None",
/* pixels */
"X....",
".    ",
"     ",
"     ",
"     ",
"     ",
"     ",
"     ",
"     ",
"     ",
"     ",
"     ",
"     ",
"     ",
"     ",
"     ",
"     ",
"     ",
"     ",
"     ",
"     ",
"     ",
"     ",
"     "
};
