<?xml version="1.0" encoding="UTF-8" standalone="no"?>
<svg 
  xmlns="http://www.w3.org/2000/svg" 
  xmlns:xlink="http://www.w3.org/1999/xlink" 
  xmlns:sodipodi="http://sodipodi.sourceforge.net/DTD/sodipodi-0.dtd" 
  xmlns:inkscape="http://www.inkscape.org/namespaces/inkscape" version="1.1" viewBox="197 47 26 26" width="26" height="26">
  <g id="forms" inkscape:groupmode="layer" inkscape:label="Forms - edit here" transform="translate(400,0)" style="fill: none; stroke: #000000; stroke-width: 0.1;">
    <g id="close-form" transform="translate(50,60)">
      <rect id="n2" x="7" y="7" width="26" height="26"/>
      <path id="t3" d="M 16,23.1 C 16,22.6 16.35,22.275 16.6,22 L 18.6,20 16.6,18 C 16.35,17.75 16,17.4 16,16.9 L 16,16 16.9,16 C 17.4,16 17.75,16.35 18,16.6 L 20,18.6 22,16.6 C 22.25,16.35 22.6,16 23.1,16 L 24,16 24,16.9 C 24,17.4 23.65,17.75 23.4,18 L 21.4,20 23.4,22 C 23.65,22.25 24,22.6 24,23.1 L 24,24 23.1,24 C 22.6,24 22.25,23.65 22,23.4 L 20,21.4 18,23.4 C 17.75,23.65 17.4,24 16.9,24 L 16,24 Z"/>
      <circle id="f5" cx="20" cy="20" r="11"/>
    </g>
  </g>
  <g id="assets" inkscape:groupmode="layer" inkscape:label="Assets" sodipodi:insensitive="true">
    <g class="close" transform="translate(190,40)">
      <g id="close">
        <use xlink:href="#n2" class="null" style="fill: none;"/>
        <use xlink:href="#f5" x="0" y="1" class="shadow" style="opacity: 0.1; fill: #000000; stroke: none; stroke-width: 1;"/>
        <use xlink:href="#f5" class="face" style="fill: #f75961;"/>
        <use xlink:href="#t3" class="trim" style="fill: #ffffff; stroke-width: 1;"/>
      </g>
    </g>
  </g>
</svg>
