<?xml version="1.0" encoding="UTF-8" standalone="no"?>
<svg 
  xmlns="http://www.w3.org/2000/svg" 
  xmlns:xlink="http://www.w3.org/1999/xlink" 
  xmlns:sodipodi="http://sodipodi.sourceforge.net/DTD/sodipodi-0.dtd" 
  xmlns:inkscape="http://www.inkscape.org/namespaces/inkscape" version="1.1" viewBox="0 210 400 120" width="400" height="120">
  <defs>
    <clipPath id="cp6" clipPathUnits="userSpaceOnUse">
      <rect x="0" y="0" width="400" height="120"/>
    </clipPath>
  </defs>
  <g id="assets" inkscape:groupmode="layer" inkscape:label="Assets" sodipodi:insensitive="true">
    <g class="misc">
      <g id="trash-icon" clip-path="url(#cp6)" transform="translate(0,210)">
        <rect class="null" x="0" y="0" width="400" height="120" style="fill: none;"/>
        <rect x="7" y="7" width="386" height="116" rx="1" ry="1" class="face" style="opacity: 0.3; fill: #000000;"/>
        <rect x="6.5" y="6.5" width="387" height="116" rx="1.5" ry="1.5" class="border" style="opacity: 0.45; stroke: #000000; fill: none; stroke-width: 1;"/>
        <path class="trim" d="M 208.5,84.5 A 1.5,1.5 0 0 0 211.5,84.5 L 211.5,55.5 A 1.5,1.5 0 1 0 208.5,55.5 Z M 198.5,84.5 A 1.5,1.5 0 0 0 201.5,84.5 L 201.5,55.5 A 1.5,1.5 0 1 0 198.5,55.5 Z M 188.5,84.5 A 1.5,1.5 0 0 0 191.5,84.5 L 191.5,55.5 A 1.5,1.5 0 1 0 188.5,55.5 Z M 193.5,39 A 3,3 0 0 1 196.5,36 L 203.5,36 A 3,3 0 0 1 206.5,39 Z M 217,49 217,85 A 6,6 0 0 1 211,91 L 189,91 A 6,6 0 0 1 183,85 L 183,49 Z M 180,47 A 6,6 0 0 1 186,41 L 214,41 A 6,6 0 0 1 220,47 Z" style="opacity: 0.81; fill: #ffffff; stroke-width: 1;"/>
      </g>
    </g>
  </g>
</svg>
