<?xml version="1.0" encoding="UTF-8" standalone="no"?>
<svg 
  xmlns="http://www.w3.org/2000/svg" 
  xmlns:xlink="http://www.w3.org/1999/xlink" 
  xmlns:sodipodi="http://sodipodi.sourceforge.net/DTD/sodipodi-0.dtd" 
  xmlns:inkscape="http://www.inkscape.org/namespaces/inkscape" version="1.1" viewBox="44 104 32 32" width="32" height="32">
  <!-- Do not change style by hand, instead edit sass/_assets-variant.scss and then
       execute grunt cinnamon_assets -->
  <g id="assets" inkscape:groupmode="layer" inkscape:label="Assets" sodipodi:insensitive="true">
    <g class="misc" transform="translate(0,100)">
      <g id="message" transform="translate(40,0)">
        <rect x="5" y="5" width="30" height="30" rx="1" ry="1" class="face" style="fill: #000000; opacity: 0.15;"/>
        <rect x="4.5" y="4.5" width="31" height="31" rx="1.5" ry="1.5" class="border" style="stroke: #000000; opacity: 0.38; fill: none; stroke-width: 1;"/>
        <path d="M 7,35 6,35 A 1,1 0 0 1 5,34 L 5,6 A 1,1 0 0 1 6,5 L 7,5 Z" class="trim" style="fill: #8fa876; stroke-width: 1;"/>
        <path d="M 7.5,35.5 6,35.5 A 1.5,1.5 0 0 1 4.5,34 L 4.5,6 A 1.5,1.5 0 0 1 6,4.5 L 7.5,4.5 Z" class="trim2" style="stroke: none; fill: none; stroke-width: 1;"/>
      </g>
    </g>
  </g>
</svg>
