<?xml version="1.0" encoding="UTF-8" standalone="no"?>
<svg 
  xmlns="http://www.w3.org/2000/svg" 
  xmlns:xlink="http://www.w3.org/1999/xlink" 
  xmlns:sodipodi="http://sodipodi.sourceforge.net/DTD/sodipodi-0.dtd" 
  xmlns:inkscape="http://www.inkscape.org/namespaces/inkscape" version="1.1" viewBox="84 104 32 84" width="32" height="84">
  <!-- Do not change style by hand, instead edit sass/_assets-variant.scss and then
       execute grunt cinnamon_assets -->
  <defs>
    <clipPath id="cp8" clipPathUnits="userSpaceOnUse">
      <rect width="22" height="13" x="9" y="9"/>
    </clipPath>
  </defs>
  <g id="forms" inkscape:groupmode="layer" inkscape:label="Forms - edit here" transform="translate(130,0)" style="fill: none; stroke: #000000; stroke-width: 0.1;">
    <g id="bg-form">
      <path id="s5" d="M 9.648,30.31 C 10.373,31.04 11.38,31.5 12.5,31.5 L 27.5,31.5 C 28.62,31.5 29.627,31.04 30.352,30.31 30.093,30.43 29.807,30.5 29.5,30.5 L 10.5,30.5 C 10.194,30.5 9.908,30.43 9.648,30.31 Z"/>
    </g>
  </g>
  <g id="assets" inkscape:groupmode="layer" inkscape:label="Assets" sodipodi:insensitive="true">
    <g class="misc" transform="translate(0,100)">
      <g id="modal" transform="translate(80,0)">
        <rect x="9" y="9" width="22" height="21" rx="1.5" class="face" clip-path="url(#cp8)" ry="1.5" style="fill: #323644;"/>
        <rect x="8.5" y="8.5" width="23" height="74" rx="2" ry="2" class="border" style="stroke: #000000; opacity: 0.64; fill: none; stroke-width: 1;"/>
        <g class="shadow" style="stroke: #000000; opacity: 0.65; fill: none; stroke-width: 1;">
          <rect x="4.5" y="4.5" width="31" height="83" rx="8" ry="8" class="shadow1" style="opacity: 0.02;"/>
          <rect x="5.5" y="5.5" width="29" height="81" rx="7" ry="7" class="shadow2" style="opacity: 0.07;"/>
          <rect x="6.5" y="6.5" width="27" height="79" rx="6" ry="6" class="shadow3" style="opacity: 0.13;"/>
          <rect x="7.5" y="7.5" width="25" height="77" rx="5" ry="5" class="shadow4" style="opacity: 0.2;"/>
          <use xlink:href="#s5" y="52" class="shadow5" style="opacity: 0.25;"/>
        </g>
      </g>
    </g>
  </g>
</svg>
