<?xml version="1.0" encoding="UTF-8" standalone="no"?>
<svg xmlns="http://www.w3.org/2000/svg" xmlns:xlink="http://www.w3.org/1999/xlink" version="1.1" height="240" width="240">
  <!-- Do not change style by hand, instead edit sass/_assets-variant.scss and then
       execute grunt xfwm4 -->
  <defs><style type="text/css"><![CDATA[
#forms {
  fill: none;
  stroke: #000000;
  stroke-width: 0.1; }
  #forms use {
    stroke: #aaaaff; }

.border {
  fill: none; }
  .border.top {
    stroke: #373737; }
  .border.bottom {
    stroke: #2f2f2f; }

.back {
  fill: #2f2f2f; }

.active .trim {
  fill: #909090; }

.inactive .trim {
  fill: #666666; }

.prelight .face {
  fill: #4c4c4c;
  stroke: #272727; }

.prelight .trim {
  fill: #c4c4c4; }

.pressed .face {
  fill: #949494;
  stroke: #272727; }

.pressed .trim {
  fill: #ffffff; }

#close .trim {
  fill: #2f2f2f; }

#close .active .face {
  fill: #9ab87c;
  stroke: #808080; }

#close .inactive .face {
  fill: #949494;
  stroke: #808080; }

#close .inactive .trim {
  fill: #2f2f2f; }

#close .prelight .face {
  fill: #9ac66e;
  stroke: #808080; }

#close .pressed .face {
  fill: #749651;
  stroke: #808080; }

#hide .active .trim {
  fill: #909090; }

#menu .pressed .face {
  fill: #949494; }

.stick .active .face {
  fill: none;
  stroke: #909090; }

.stick .inactive .face {
  fill: none;
  stroke: #666666; }

.stick .prelight .face {
  stroke: #c4c4c4; }

]]></style></defs>
  <g id="forms" transform="translate(0,180)">
    <g transform="translate(30)">
      <rect id="g1" x="3" y="4" width="24" height="23"/>
      <path id="b1" d="M 3 3.5 27 3.5"/>
    </g>
    <g transform="translate(0,30)">
      <g>
        <rect id="g2" x="6" y="1" width="4" height="23"/>
        <path id="b2" d="M 6 0.5 10 0.5 M 5.5 1 5.5 2"/>
        <path id="b3" d="M 5.5 2 5.5 24"/>
      </g>
      <g transform="translate(0,25)">
        <rect id="g3" x="6" y="0" width="2" height="1"/>
        <path id="b4" d="M 5.5 0 5.5 1"/>
      </g>
      <g transform="translate(0,25)">
        <rect x="5" y="2" width="3" height="3"/>
        <rect id="g4" x="6" y="2" width="2" height="2"/>
        <path id="b5" d="M 5.5 2 5.5 4.5 8 4.5"/>
      </g>
    </g>
    <g transform="translate(60)">
      <use xlink:href="#g1"/>
      <use xlink:href="#b1"/>
      <circle id="fc" r="6.5" cx="15" cy="15"/>
      <path id="tc" d="M 12,12 C 12.5,12 13,12 13.25,12.25 L 15,14 16.75,12.25 C 17.5,12 17.5,12 18,12 18,12.5 18,13 17.75,13.25 L 16,15 17.75,16.75 C 18,17 18,17.5 18,18 17.5,18 17,18 16.75,17.75 L 15,16 13.25,17.75 C 13,18 12.5,18 12,18 12,17.5 12,17.025 12.25,16.75 L 14,15 12.25,13.25 C 12,13 12,12.5 12,12 Z"/>
    </g>
    <g transform="translate(60,30)">
      <use xlink:href="#g1"/>
      <use xlink:href="#b1"/>
      <circle xlink:href="#fc"/>
      <rect id="tm" x="12" y="14" width="6" height="2"/>
    </g>
    <g transform="translate(90,30)">
      <use xlink:href="#g1"/>
      <use xlink:href="#b1"/>
      <use xlink:href="#fc"/>
      <path id="tm2" d="M 13.8,12 17.2,12 C 17.6,12 18,12.4 18,12.8 L 18,16.2 Z M 16.2,18 12.8,18 C 12.4,18 12,17.6 12,17.2 L 12,13.8 Z"/>
    </g>
    <g transform="translate(90,0)">
      <use xlink:href="#g1"/>
      <use xlink:href="#b1"/>
      <use xlink:href="#fc"/>
      <path d="M 15,17 11.55,14.55 C 10.62,13.89 11.62,12.49 12.55,13.15 L 15,14.9 17.45,13.15 C 18.38,12.49 19.38,13.89 18.45,14.55 L 15,17 Z" id="tn"/>
    </g>
    <g transform="translate(120,0)">
      <use xlink:href="#g1"/>
      <use xlink:href="#b1"/>
      <use xlink:href="#fc"/>
      <path id="ts" d="M 15,11 11.55,13.45 C 10.62,14.11 11.62,15.51 12.55,14.85 L 14,13.81 14,18 A 1 1 0 0 0 16,18 L 16,13.81 17.45,14.85 C 18.38,15.51 19.38,14.11 18.45,13.45 L 15,11 Z"/>
    </g>
    <g transform="translate(120,30)">
      <use xlink:href="#g1"/>
      <use xlink:href="#b1"/>
      <use xlink:href="#fc"/>
      <circle id="tk" r="4" cx="15" cy="15"/>
    </g>
  </g>
  <g id="bgs" transform="translate(0,180)">
    <g id="iconbg">
      <use xlink:href="#g1" class="back"/>
      <use xlink:href="#b1" class="border top"/>
    </g>
  </g>
  <g id="frames">
    <g class="active">
      <g id="top-left-active">
        <use xlink:href="#g2" class="back"/>
        <use xlink:href="#b2" class="border top"/>
        <use xlink:href="#b3" class="border bottom"/>
      </g>
      <g id="top-right-active" transform="matrix(-1,0,0,1,25,0)">
        <use xlink:href="#g2" class="back"/>
        <use xlink:href="#b2" class="border top"/>
        <use xlink:href="#b3" class="border bottom"/>
      </g>
      <g id="bottom-left-active" transform="translate(0,25)">
        <use xlink:href="#g4" class="back"/>
        <use xlink:href="#b5" class="border bottom"/>
      </g>
      <g id="bottom-right-active" transform="matrix(-1,0,0,1,25,25)">
        <use xlink:href="#g4" class="back"/>
        <use xlink:href="#b5" class="border bottom"/>
      </g>
      <g id="left-active" transform="translate(0,25)">
        <use xlink:href="#g3" class="back"/>
        <use xlink:href="#b4" class="border bottom"/>
      </g>
      <g id="right-active" transform="matrix(-1,0,0,1,25,25)">
        <use xlink:href="#g3" class="back"/>
        <use xlink:href="#b4" class="border bottom"/>
      </g>
      <g id="bottom-active" transform="matrix(0,-1,-1,0,13,35)">
        <use xlink:href="#g3" class="back"/>
        <use xlink:href="#b4" class="border bottom"/>
      </g>
    </g>
    <g class="inactive" transform="translate(30,0)">
      <use id="top-left-inactive" xlink:href="#top-left-active"/>
      <use id="top-right-inactive" xlink:href="#top-right-active"/>
      <use id="bottom-left-inactive" xlink:href="#bottom-left-active"/>
      <use id="bottom-right-inactive" xlink:href="#bottom-right-active"/>
      <use id="left-inactive" xlink:href="#left-active"/>
      <use id="right-inactive" xlink:href="#right-active"/>
      <use id="bottom-inactive" xlink:href="#bottom-active"/>
    </g>
  </g>
  <g id="titles" transform="translate(90,0)">
    <g class="active">
      <use id="title-1-active" xlink:href="#iconbg" y="0"/>
      <use id="title-2-active" xlink:href="#iconbg" x="30"/>
      <use id="title-3-active" xlink:href="#iconbg" x="60"/>
      <use id="title-4-active" xlink:href="#iconbg" x="90"/>
      <use id="title-5-active" xlink:href="#iconbg" x="120"/>
    </g>
    <g class="inactive" transform="translate(0,30)">
      <use id="title-1-inactive" xlink:href="#iconbg" x="0"/>
      <use id="title-2-inactive" xlink:href="#iconbg" x="30"/>
      <use id="title-3-inactive" xlink:href="#iconbg" x="60"/>
      <use id="title-4-inactive" xlink:href="#iconbg" x="90"/>
      <use id="title-5-inactive" xlink:href="#iconbg" x="120"/>
    </g>
  </g>
  <g id="close" transform="translate(0,60)">
    <g id="close-active" class="active">
      <use xlink:href="#iconbg"/>
      <use xlink:href="#fc" class="face"/>
      <use xlink:href="#tc" class="trim"/>
    </g>
    <g id="close-inactive" class="inactive" transform="translate(0,30)">
      <use xlink:href="#iconbg"/>
      <use xlink:href="#fc" class="face"/>
      <use xlink:href="#tc" class="trim"/>
    </g>
    <g id="close-prelight" class="prelight" transform="translate(0,60)">
      <use xlink:href="#iconbg"/>
      <use xlink:href="#fc" class="face"/>
      <use xlink:href="#tc" class="trim"/>
    </g>
    <g id="close-pressed" class="pressed" transform="translate(0,90)">
      <use xlink:href="#iconbg"/>
      <use xlink:href="#fc" class="face"/>
      <use xlink:href="#tc" class="trim"/>
    </g>
  </g>
  <g id="hide" transform="translate(30,60)">
    <g id="hide-active" class="active">
      <use xlink:href="#iconbg"/>
      <use xlink:href="#tm" class="trim"/>
    </g>
    <g id="hide-inactive" class="inactive" transform="translate(0,30)">
      <use xlink:href="#iconbg"/>
      <use xlink:href="#tm" class="trim"/>
    </g>
    <g id="hide-prelight" class="prelight" transform="translate(0,60)">
      <use xlink:href="#iconbg"/>
      <use xlink:href="#fc" class="face"/>
      <use xlink:href="#tm" class="trim"/>
    </g>
    <g id="hide-pressed" class="pressed" transform="translate(0,90)">
      <use xlink:href="#iconbg"/>
      <use xlink:href="#fc" class="face"/>
      <use xlink:href="#tm" class="trim"/>
    </g>
  </g>
  <g id="maximize" transform="translate(60,60)">
    <g id="maximize-active" class="active">
      <use xlink:href="#iconbg"/>
      <use xlink:href="#tm2" class="trim"/>
    </g>
    <g id="maximize-inactive" class="inactive" transform="translate(0,30)">
      <use xlink:href="#iconbg"/>
      <use xlink:href="#tm2" class="trim"/>
    </g>
    <g id="maximize-prelight" class="prelight" transform="translate(0,60)">
      <use xlink:href="#iconbg"/>
      <use xlink:href="#fc" class="face"/>
      <use xlink:href="#tm2" class="trim"/>
    </g>
    <g id="maximize-pressed" class="pressed" transform="translate(0,90)">
      <use xlink:href="#iconbg"/>
      <use xlink:href="#fc" class="face"/>
      <use xlink:href="#tm2" class="trim"/>
    </g>
  </g>
  <g id="menu" transform="translate(90,60)">
    <g id="menu-active" class="active">
      <use xlink:href="#iconbg"/>
      <use xlink:href="#tn" class="trim"/>
    </g>
    <g id="menu-inactive" class="inactive" transform="translate(0,30)">
      <use xlink:href="#iconbg"/>
      <use xlink:href="#tn" class="trim"/>
    </g>
    <g id="menu-prelight" class="prelight" transform="translate(0,60)">
      <use xlink:href="#iconbg"/>
      <use xlink:href="#fc" class="face"/>
      <use xlink:href="#tn" class="trim"/>
    </g>
    <g id="menu-pressed" class="pressed" transform="translate(0,90)">
      <use xlink:href="#iconbg"/>
      <use xlink:href="#fc" class="face"/>
      <use xlink:href="#tn" class="trim"/>
    </g>
  </g>
  <g id="shade" class="shade" transform="translate(120,60)">
    <g id="shade-active" class="active">
      <use xlink:href="#iconbg"/>
      <use xlink:href="#ts" class="trim"/>
    </g>
    <g id="shade-inactive" class="inactive" transform="translate(0,30)">
      <use xlink:href="#iconbg"/>
      <use xlink:href="#ts" class="trim"/>
    </g>
    <g id="shade-prelight" class="prelight" transform="translate(0,60)">
      <use xlink:href="#iconbg"/>
      <use xlink:href="#fc" class="face"/>
      <use xlink:href="#ts" class="trim"/>
    </g>
  </g>
  <g id="shade-toggled" class="shade toggled" transform="translate(150,60)">
    <g id="shade-toggled-active" class="active">
      <use xlink:href="#iconbg"/>
      <use xlink:href="#ts" transform="matrix(1,0,0,-1,0,30)" class="trim"/>
    </g>
    <g transform="translate(0,30)" class="inactive" id="shade-toggled-inactive">
      <use xlink:href="#iconbg"/>
      <use xlink:href="#ts" transform="matrix(1,0,0,-1,0,30)" class="trim"/>
    </g>
    <g id="shade-toggled-prelight" class="prelight" transform="translate(0,60)">
      <use xlink:href="#iconbg"/>
      <use xlink:href="#fc" class="face"/>
      <use xlink:href="#ts" transform="matrix(1,0,0,-1,0,30)" class="trim"/>
    </g>
  </g>
  <g id="stick" class="stick" transform="translate(180,60)">
    <g id="stick-active" class="active">
      <use xlink:href="#iconbg"/>
      <use xlink:href="#fc" class="face"/>
    </g>
    <g id="stick-inactive" class="inactive" transform="translate(0,30)">
      <use xlink:href="#iconbg"/>
      <use xlink:href="#fc" class="face"/>
    </g>
    <g id="stick-prelight" class="prelight" transform="translate(0,60)">
      <use xlink:href="#iconbg"/>
      <use xlink:href="#fc" class="face"/>
    </g>
  </g>
  <g id="stick-toggled" class="stick toggled" transform="translate(210,60)">
    <g id="stick-toggled-active" class="active">
      <use xlink:href="#iconbg"/>
      <use xlink:href="#fc" class="face"/>
      <use xlink:href="#tk" class="trim"/>
    </g>
    <g id="stick-toggled-inactive" class="inactive" transform="translate(0,30)">
      <use xlink:href="#iconbg"/>
      <use xlink:href="#fc" class="face"/>
      <use xlink:href="#tk" class="trim"/>
    </g>
    <g id="stick-toggled-prelight" class="prelight" transform="translate(0,60)">
      <use xlink:href="#iconbg"/>
      <use xlink:href="#fc" class="face"/>
      <use xlink:href="#tk" class="trim"/>
    </g>
  </g>
</svg>
