<?xml version="1.0" encoding="UTF-8" standalone="no"?>
<svg 
  xmlns="http://www.w3.org/2000/svg" 
  xmlns:xlink="http://www.w3.org/1999/xlink" 
  xmlns:sodipodi="http://sodipodi.sourceforge.net/DTD/sodipodi-0.dtd" 
  xmlns:inkscape="http://www.inkscape.org/namespaces/inkscape" version="1.1" viewBox="4 24 32 32" width="32" height="32">
  <!-- Do not change style by hand, instead edit sass/_assets-variant.scss and then
       execute grunt cinnamon_assets -->
  <g id="forms" inkscape:groupmode="layer" inkscape:label="Forms - edit here" transform="translate(130,0)" style="fill: none; stroke: #000000; stroke-width: 0.1;">
    <g id="bg-form">
      <path id="s5" d="M 9.648,30.31 C 10.373,31.04 11.38,31.5 12.5,31.5 L 27.5,31.5 C 28.62,31.5 29.627,31.04 30.352,30.31 30.093,30.43 29.807,30.5 29.5,30.5 L 10.5,30.5 C 10.194,30.5 9.908,30.43 9.648,30.31 Z"/>
    </g>
  </g>
  <g id="assets" inkscape:groupmode="layer" inkscape:label="Assets" sodipodi:insensitive="true">
    <g class="menu">
      <g id="menu" transform="translate(0,20)">
        <rect id="f3" width="22" height="21" x="9" y="9" rx="1.5" ry="1.5" class="face" style="fill: #383d4a;"/>
        <rect id="f4" width="23" height="22" x="8.5" y="8.5" rx="2" ry="2" class="border" style="stroke: #1b1c21; opacity: 0.83; fill: none; stroke-width: 1;"/>
        <g class="shadow" style="stroke: #000000; opacity: 0.65; fill: none; stroke-width: 1;">
          <rect id="s1" width="31" height="31" x="4.5" y="4.5" rx="8" ry="8" class="shadow1" style="opacity: 0.02;"/>
          <rect id="s2" width="29" height="29" x="5.5" y="5.5" rx="7" ry="7" class="shadow2" style="opacity: 0.07;"/>
          <rect id="s3" width="27" height="27" x="6.5" y="6.5" rx="6" ry="6" class="shadow3" style="opacity: 0.13;"/>
          <rect id="s4" width="25" height="25" x="7.5" y="7.5" rx="5" ry="5" class="shadow4" style="opacity: 0.2;"/>
          <use xlink:href="#s5" class="shadow5" style="opacity: 0.25;"/>
        </g>
      </g>
    </g>
  </g>
</svg>
