/* XPM */
static char *close_pressed[] = {
/* columns rows colors chars-per-pixel */
"24 24 36 1 ",
"  c #7BA057",
". c #7DA15A",
"X c #7DA15B",
"o c #7EA15A",
"O c #7EA15B",
"+ c #7DA25A",
"@ c #7DA25B",
"# c #7EA25A",
"$ c #7EA25B",
"% c #7EA25C",
"& c #7FA25C",
"* c #7FA25D",
"= c #7FA35D",
"- c #87A768",
"; c #87A868",
": c #88A869",
"> c #A7BA93",
", c #A7BA94",
"< c #A7BB94",
"1 c #A7BB95",
"2 c #B9CCA5",
"3 c #BACDA7",
"4 c #B9C6AD",
"5 c #BAC6AE",
"6 c #BAC7AF",
"7 c #BBCEA8",
"8 c #BDCFAB",
"9 c #BDD0AB",
"0 c #C1D3B1",
"q c #D1D4CE",
"w c #D2D5CF",
"e c gray85",
"r c #EEEEEE",
"t c #EDF2E8",
"y c #F7F9F4",
"u c white",
/* pixels */
"rrrrrrrrrrrrrrrrrrrrrrrr",
"eeeeeeeeeeeeeeeeeeeeeeee",
"eeeeeeeeeeeeeeeeeeeeeeee",
"eeeeeeeeeeeeeeeeeeeeeeee",
"eeeeeeeeeeeeeeeeeeeeeeee",
"eeeeeeeeq,;oo-,qeeeeeeee",
"eeeeeee4&o    o&4eeeeeee",
"eeeeee4&        &6eeeeee",
"eeeeeq&      o   =qeeeee",
"eeeee,o  y7  2t   1eeeee",
"eeeee;   7u99u7   ;eeeee",
"eeeee     2uu8    &eeeee",
"eeeeeo    9uu0    &eeeee",
"eeeee;   7u99u7   ;eeeee",
"eeeee,o  y7  7y  @1eeeee",
"eeeeeq=          =qeeeee",
"eeeeee6&        &6eeeeee",
"eeeeeee4=o    &=6eeeeeee",
"eeeeeeeeq1;&&;,qeeeeeeee",
"eeeeeeeeeeeeeeeeeeeeeeee",
"eeeeeeeeeeeeeeeeeeeeeeee",
"eeeeeeeeeeeeeeeeeeeeeeee",
"eeeeeeeeeeeeeeeeeeeeeeee",
"eeeeeeeeeeeeeeeeeeeeeeee"
};
