/* XPM */
static char *close_active[] = {
/* columns rows colors chars-per-pixel */
"24 24 32 1 ",
"  c #9AB87C",
". c #9BB97F",
"X c #9CB97E",
"o c #9CB97F",
"O c #9CBA7F",
"+ c #9CB980",
"@ c #9DBA80",
"# c #A2BC88",
"$ c #A2BD88",
"% c #A2BC89",
"& c #A3BD89",
"* c #B7C7A7",
"= c #B8C7A7",
"- c #B8C7A8",
"; c #B7C8A8",
": c #C4CEB9",
"> c #C4CEBA",
", c #C5CEBA",
"< c #C9D9B9",
"1 c #CADABA",
"2 c #CBDABB",
"3 c #CCDBBD",
"4 c #CDDCBE",
"5 c #D0DEC2",
"6 c #D3D6D1",
"7 c #D4D6D1",
"8 c #D4D6D2",
"9 c gray85",
"0 c #EEEEEE",
"q c #F1F5ED",
"w c #F9FBF7",
"e c white",
/* pixels */
"000000000000000000000000",
"999999999999999999999999",
"999999999999999999999999",
"999999999999999999999999",
"999999999999999999999999",
"999999996*#..$;799999999",
"9999999:oo    o+,9999999",
"999999:+       .O,999999",
"999997o   .      O799999",
"99999=o  w<  <q  o=99999",
"99999$   2e44e2   #99999",
"99999o    <ee4    o99999",
"99999o    4ee5    o99999",
"99999&   <e44e<   #99999",
"99999;o  w2  2w. o=99999",
"999997o         o@899999",
"999999:o.       O,999999",
"9999999:oo    oo,9999999",
"999999997=&oo$=799999999",
"999999999999999999999999",
"999999999999999999999999",
"999999999999999999999999",
"999999999999999999999999",
"999999999999999999999999"
};
