/* XPM */
static char *close_prelight[] = {
/* columns rows colors chars-per-pixel */
"24 24 35 1 ",
"  c #9ABC78",
". c #9BBD7B",
"X c #9CBC7A",
"o c #9CBD7A",
"O c #9CBC7B",
"+ c #9CBD7B",
"@ c #9CBD7C",
"# c #9DBD7D",
"$ c #9CBE7C",
"% c #9DBE7C",
"& c #A2BF84",
"* c #A2C084",
"= c #A2C085",
"- c #A3C085",
"; c #B7C9A5",
": c #B7CAA6",
"> c #B8CAA5",
", c #B8CAA6",
"< c #C4CFB9",
"1 c #C9DBB7",
"2 c #C4D0B8",
"3 c #C5D0B9",
"4 c #CADCB8",
"5 c #CBDCB9",
"6 c #CCDDBB",
"7 c #CDDEBC",
"8 c #D3D6D0",
"9 c #D4D6D1",
"0 c #D4D7D1",
"q c gray85",
"w c #D0E0C0",
"e c #EEEEEE",
"r c #F1F6EC",
"t c #F9FBF7",
"y c white",
/* pixels */
"eeeeeeeeeeeeeeeeeeeeeeee",
"qqqqqqqqqqqqqqqqqqqqqqqq",
"qqqqqqqqqqqqqqqqqqqqqqqq",
"qqqqqqqqqqqqqqqqqqqqqqqq",
"qqqqqqqqqqqqqqqqqqqqqqqq",
"qqqqqqqq8:&$.=:9qqqqqqqq",
"qqqqqqq2$X    +$<qqqqqqq",
"qqqqqq2$        +<qqqqqq",
"qqqqq8$          +9qqqqq",
"qqqqq,+  t5  5r  X,qqqqq",
"qqqqq&   5y76y5   =qqqqq",
"qqqqqX    1yy6    +qqqqq",
"qqqqq+    7yyw    +qqqqq",
"qqqqq&   5y77y5   =qqqqq",
"qqqqq,+  t5  5t  +,qqqqq",
"qqqqq9$         +%0qqqqq",
"qqqqqq<+.       +2qqqqqq",
"qqqqqqq<+X    ++2qqqqqqq",
"qqqqqqqq9,&++&,0qqqqqqqq",
"qqqqqqqqqqqqqqqqqqqqqqqq",
"qqqqqqqqqqqqqqqqqqqqqqqq",
"qqqqqqqqqqqqqqqqqqqqqqqq",
"qqqqqqqqqqqqqqqqqqqqqqqq",
"qqqqqqqqqqqqqqqqqqqqqqqq"
};
