/* XPM */
static char *close_inactive[] = {
/* columns rows colors chars-per-pixel */
"24 24 17 1 ",
"  c #B6B6B6",
". c #B7B7B7",
"X c gray72",
"o c gray73",
"O c #BBBBBB",
"+ c #C6C6C6",
"@ c #CDCDCD",
"# c #CECECE",
"$ c #D0D0D0",
"% c gray82",
"& c #D2D2D2",
"* c gray83",
"= c gray84",
"- c gray85",
"; c #E6E6E6",
": c #EAEAEA",
"> c #EEEEEE",
/* pixels */
">>>>>>>>>>>>>>>>>>>>>>>>",
"------------------------",
"------------------------",
"------------------------",
"------------------------",
"--------=+O..O+=--------",
"-------#X.    .X@-------",
"------#.        .@------",
"-----=X          X=-----",
"-----+.  :%  %;  .+-----",
"-----o   %>&&>%   O-----",
"-----     $>>&    .-----",
"-----.    &>>*    .-----",
"-----O   %>&&>%   O-----",
"-----+.  :%  %:  .+-----",
"-----=X          X=-----",
"------@.        .#------",
"-------@X.     X#-------",
"--------=+o..o+=--------",
"------------------------",
"------------------------",
"------------------------",
"------------------------",
"------------------------"
};
