/* XPM */
static char *hide_pressed[] = {
/* columns rows colors chars-per-pixel */
"24 24 16 1 ",
"  c #808080",
". c gray51",
"X c #838383",
"o c #848484",
"O c #8B8B8B",
"+ c gray55",
"@ c #A9A9A9",
"# c #AAAAAA",
"$ c gray67",
"% c #BBBBBB",
"& c #BCBCBC",
"* c gray82",
"= c #D2D2D2",
"- c gray85",
"; c #EEEEEE",
": c white",
/* pixels */
";;;;;;;;;;;;;;;;;;;;;;;;",
"------------------------",
"------------------------",
"------------------------",
"------------------------",
"--------*@+..+#=--------",
"-------%oX    .o&-------",
"------%X        o&------",
"-----*o          o=-----",
"-----@X          .#-----",
"-----O            +-----",
"-----.   ::::::   .-----",
"-----.   ::::::   X-----",
"-----+            +-----",
"-----#.          .$-----",
"-----=o          o=-----",
"------&o        o&------",
"-------&o.    Xo&-------",
"--------=#+..+$=--------",
"------------------------",
"------------------------",
"------------------------",
"------------------------",
"------------------------"
};
