/* XPM */
static char *hide_prelight[] = {
/* columns rows colors chars-per-pixel */
"24 24 17 1 ",
"  c gray48",
". c gray82",
"X c #D2D2D2",
"o c LightGray",
"O c gray83",
"+ c #D5D5D5",
"@ c gray84",
"# c #D8D8D8",
"$ c gray85",
"% c gray89",
"& c #EEEEEE",
"* c #F4F4F4",
"= c gray96",
"- c #F6F6F6",
"; c gray99",
": c #FDFDFD",
"> c white",
/* pixels */
"&&&&&&&&&&&&&&&&&&&&&&&&",
"$$$$$$$$$$$$$$$$$$$$$$$$",
"$$$$$$$$$$$$$$$$$$$$$$$$",
"$$$$$$$$$$$$$$$$$$$$$$$$",
"$$$$$$$$$$$$$$$$$$$$$$$$",
"$$$$$$$$#+O..O+#$$$$$$$$",
"$$$$$$$@X%=::=%X@$$$$$$$",
"$$$$$$@o->>>>>>-o@$$$$$$",
"$$$$$#X->>>>>>>>-X#$$$$$",
"$$$$$+%>>>>>>>>>>%+$$$$$",
"$$$$$O=>>>>>>>>>>=O$$$$$",
"$$$$$.:>>      >>:.$$$$$",
"$$$$$.:>>      >>;X$$$$$",
"$$$$$O=>>>>>>>>>>*O$$$$$",
"$$$$$+%>>>>>>>>>>%+$$$$$",
"$$$$$#X->>>>>>>>-X#$$$$$",
"$$$$$$@o->>>>>>-o@$$$$$$",
"$$$$$$$@X%*::*%X@$$$$$$$",
"$$$$$$$$#+O..O+#$$$$$$$$",
"$$$$$$$$$$$$$$$$$$$$$$$$",
"$$$$$$$$$$$$$$$$$$$$$$$$",
"$$$$$$$$$$$$$$$$$$$$$$$$",
"$$$$$$$$$$$$$$$$$$$$$$$$",
"$$$$$$$$$$$$$$$$$$$$$$$$"
};
