/* XPM */
static char *maximize_inactive[] = {
/* columns rows colors chars-per-pixel */
"24 24 8 1 ",
"  c #B6B6B6",
". c gray74",
"X c #C0C0C0",
"o c #C1C1C1",
"O c gray76",
"+ c #D8D8D8",
"@ c gray85",
"# c #EEEEEE",
/* pixels */
"########################",
"@@@@@@@@@@@@@@@@@@@@@@@@",
"@@@@@@@@@@@@@@@@@@@@@@@@",
"@@@@@@@@@@@@@@@@@@@@@@@@",
"@@@@@@@@@@@@@@@@@@@@@@@@",
"@@@@@@@@@@@@@@@@@@@@@@@@",
"@@@@@@@@@@@@@@@@@@@@@@@@",
"@@@@@@@@@@@@@@@@@@@@@@@@",
"@@@@@@@@@@@@@@@@@@@@@@@@",
"@@@@@@@@@@@o  .@@@@@@@@@",
"@@@@@@@@@@@@o  @@@@@@@@@",
"@@@@@@@@@X+@+O @@@@@@@@@",
"@@@@@@@@@ X+@+O@@@@@@@@@",
"@@@@@@@@@  o@@@@@@@@@@@@",
"@@@@@@@@@.  o@@@@@@@@@@@",
"@@@@@@@@@@@@@@@@@@@@@@@@",
"@@@@@@@@@@@@@@@@@@@@@@@@",
"@@@@@@@@@@@@@@@@@@@@@@@@",
"@@@@@@@@@@@@@@@@@@@@@@@@",
"@@@@@@@@@@@@@@@@@@@@@@@@",
"@@@@@@@@@@@@@@@@@@@@@@@@",
"@@@@@@@@@@@@@@@@@@@@@@@@",
"@@@@@@@@@@@@@@@@@@@@@@@@",
"@@@@@@@@@@@@@@@@@@@@@@@@"
};
