/* XPM */
static char *maximize_prelight[] = {
/* columns rows colors chars-per-pixel */
"24 24 22 1 ",
"  c gray48",
". c #959595",
"X c gray63",
"o c #A5A5A5",
"O c gray66",
"+ c gray82",
"@ c #D2D2D2",
"# c LightGray",
"$ c gray83",
"% c #D5D5D5",
"& c gray84",
"* c #D8D8D8",
"= c gray85",
"- c gray89",
"; c #EEEEEE",
": c #F4F4F4",
"> c gray96",
", c #F6F6F6",
"< c #FBFBFB",
"1 c gray99",
"2 c #FDFDFD",
"3 c white",
/* pixels */
";;;;;;;;;;;;;;;;;;;;;;;;",
"========================",
"========================",
"========================",
"========================",
"========*%$++$%*========",
"=======&@->22>-@&=======",
"======&#,333333,#&======",
"=====*@,33333333,@*=====",
"=====%-3331o  .33-%=====",
"=====$>33131o  33>$=====",
"=====+233X<32O 332+=====",
"=====+233 X<32O331@=====",
"=====$>33  o13133:$=====",
"=====%-33.  o1333-%=====",
"=====*@,33333333,@*=====",
"======&#,333333,#&======",
"=======&@-:22:-@&=======",
"========*%$++$%*========",
"========================",
"========================",
"========================",
"========================",
"========================"
};
