/* XPM */
static char *maximize_pressed[] = {
/* columns rows colors chars-per-pixel */
"24 24 21 1 ",
"  c #808080",
". c #818181",
"X c gray51",
"o c #838383",
"O c #848484",
"+ c #8B8B8B",
"@ c gray55",
"# c #A9A9A9",
"$ c #AAAAAA",
"% c gray67",
"& c #BBBBBB",
"* c #BCBCBC",
"= c gray82",
"- c #D2D2D2",
"; c LightGray",
": c gray84",
"> c gray85",
", c #DADADA",
"< c #E6E6E6",
"1 c #EEEEEE",
"2 c white",
/* pixels */
"111111111111111111111111",
">>>>>>>>>>>>>>>>>>>>>>>>",
">>>>>>>>>>>>>>>>>>>>>>>>",
">>>>>>>>>>>>>>>>>>>>>>>>",
">>>>>>>>>>>>>>>>>>>>>>>>",
">>>>>>>>=#@XX@$->>>>>>>>",
">>>>>>>&Oo    XO*>>>>>>>",
">>>>>>&o        O*>>>>>>",
">>>>>=O          O->>>>>",
">>>>>#o   X:22<  X$>>>>>",
">>>>>+   X X:22   @>>>>>",
">>>>>X   ,o .;2   X>>>>>",
">>>>>X   2,o .;   o>>>>>",
">>>>>@   22:X X   @>>>>>",
">>>>>$X  <22:X   X%>>>>>",
">>>>>-O          O->>>>>",
">>>>>>*O        O*>>>>>>",
">>>>>>>*OX    oO*>>>>>>>",
">>>>>>>>-$@XX@%->>>>>>>>",
">>>>>>>>>>>>>>>>>>>>>>>>",
">>>>>>>>>>>>>>>>>>>>>>>>",
">>>>>>>>>>>>>>>>>>>>>>>>",
">>>>>>>>>>>>>>>>>>>>>>>>",
">>>>>>>>>>>>>>>>>>>>>>>>"
};
