/* XPM */
static char *maximize_active[] = {
/* columns rows colors chars-per-pixel */
"24 24 9 1 ",
"  c #909090",
". c gray62",
"X c gray65",
"o c gray66",
"O c #A9A9A9",
"+ c #D7D7D7",
"@ c #D8D8D8",
"# c gray85",
"$ c #EEEEEE",
/* pixels */
"$$$$$$$$$$$$$$$$$$$$$$$$",
"########################",
"########################",
"########################",
"########################",
"########################",
"########################",
"########################",
"########################",
"##########@o  .#########",
"#########@#@o  #########",
"#########X+#@O #########",
"######### X+#@O#########",
"#########  o@#@#########",
"#########.  o@##########",
"########################",
"########################",
"########################",
"########################",
"########################",
"########################",
"########################",
"########################",
"########################"
};
