/* XPM */
static char *menu_prelight[] = {
/* columns rows colors chars-per-pixel */
"24 24 32 1 ",
"  c gray48",
". c #7C7C7C",
"X c gray49",
"o c gray54",
"O c gray55",
"+ c gray56",
"@ c #909090",
"# c #A9A9A9",
"$ c gray68",
"% c gray76",
"& c gray77",
"* c #C5C5C5",
"= c gray82",
"- c #D2D2D2",
"; c LightGray",
": c gray83",
"> c #D5D5D5",
", c gray84",
"< c #D8D8D8",
"1 c gray85",
"2 c #DFDFDF",
"3 c #E2E2E2",
"4 c gray89",
"5 c gray90",
"6 c #EEEEEE",
"7 c #F4F4F4",
"8 c gray96",
"9 c #F6F6F6",
"0 c gray97",
"q c gray99",
"w c #FDFDFD",
"e c white",
/* pixels */
"666666666666666666666666",
"111111111111111111111111",
"111111111111111111111111",
"111111111111111111111111",
"111111111111111111111111",
"11111111<>:==:><11111111",
"1111111,-48ww84-,1111111",
"111111,;9eeeeee9;,111111",
"11111<-9eeeeeeee9-<11111",
"11111>4eeeeeeeeee4>11111",
"11111:8e$@5ee5+$e8:11111",
"11111=we&.X%%X.*ew=11111",
"11111=wee3O  o2eeq-11111",
"11111:8eee0##0eee7:11111",
"11111>4eeeeeeeeee4>11111",
"11111<-9eeeeeeee9-<11111",
"111111,;9eeeeee9;,111111",
"1111111,-47ww74-,1111111",
"11111111<>:==:><11111111",
"111111111111111111111111",
"111111111111111111111111",
"111111111111111111111111",
"111111111111111111111111",
"111111111111111111111111"
};
