/* XPM */
static char *menu_pressed[] = {
/* columns rows colors chars-per-pixel */
"24 24 33 1 ",
"  c gray51",
". c #838383",
"X c #848484",
"o c gray52",
"O c #898989",
"+ c gray55",
"@ c #8D8D8D",
"# c gray56",
"$ c #909090",
"% c #979797",
"& c gray65",
"* c gray66",
"= c #A9A9A9",
"- c #AAAAAA",
"; c gray67",
": c #BCBCBC",
"> c gray74",
", c #C0C0C0",
"< c #C1C1C1",
"1 c #C3C3C3",
"2 c gray82",
"3 c #D2D2D2",
"4 c gray83",
"5 c #D5D5D5",
"6 c #D7D7D7",
"7 c gray85",
"8 c gray93",
"9 c #EEEEEE",
"0 c gray94",
"q c gray95",
"w c gray99",
"e c #FEFEFE",
"r c white",
/* pixels */
"999999999999999999999999",
"777777777777777777777777",
"777777777777777777777777",
"777777777777777777777777",
"777777777777777777777777",
"777777772=@  +-377777777",
"7777777:XO@$$@Oo:7777777",
"777777:X@$$$$$$@o:777777",
"777772X@$$$$$$$$@X377777",
"77777=O$$$$$$$$$$O-77777",
"77777+@$58&$$&84$++77777",
"77777.#$<ew11we,$# 77777",
"77777 #$$*0rrq;$$#.77777",
"77777@@$$$%66%$$$@+77777",
"77777-O$$$$$$$$$$O;77777",
"777773X@$$$$$$$$@X377777",
"777777:o@$$$$$$@o>777777",
"7777777:XO@##+OX>7777777",
"777777773-@..@;377777777",
"777777777777777777777777",
"777777777777777777777777",
"777777777777777777777777",
"777777777777777777777777",
"777777777777777777777777"
};
