/* XPM */
static char *menu_active[] = {
/* columns rows colors chars-per-pixel */
"24 24 17 1 ",
"  c #909090",
". c gray57",
"X c #929292",
"o c gray60",
"O c #9A9A9A",
"+ c gray61",
"@ c #AAAAAA",
"# c #ACACAC",
"$ c #B7B7B7",
"% c #B9B9B9",
"& c gray73",
"* c gray78",
"= c gray79",
"- c #CACACA",
"; c gray83",
": c gray85",
"> c #EEEEEE",
/* pixels */
">>>>>>>>>>>>>>>>>>>>>>>>",
"::::::::::::::::::::::::",
"::::::::::::::::::::::::",
"::::::::::::::::::::::::",
"::::::::::::::::::::::::",
"::::::::::::::::::::::::",
"::::::::::::::::::::::::",
"::::::::::::::::::::::::",
"::::::::::::::::::::::::",
"::::::::::::::::::::::::",
"::::::::#+-::-+#::::::::",
"::::::::%.X$$X.&::::::::",
":::::::::=O  o*:::::::::",
"::::::::::;@@;::::::::::",
"::::::::::::::::::::::::",
"::::::::::::::::::::::::",
"::::::::::::::::::::::::",
"::::::::::::::::::::::::",
"::::::::::::::::::::::::",
"::::::::::::::::::::::::",
"::::::::::::::::::::::::",
"::::::::::::::::::::::::",
"::::::::::::::::::::::::",
"::::::::::::::::::::::::"
};
