/* XPM */
static char *shade_active[] = {
/* columns rows colors chars-per-pixel */
"24 24 19 1 ",
"  c #909090",
". c gray57",
"X c #929292",
"o c gray60",
"O c #9A9A9A",
"+ c gray61",
"@ c gray63",
"# c #A2A2A2",
"$ c gray66",
"% c #AAAAAA",
"& c #ACACAC",
"* c gray68",
"= c #B9B9B9",
"- c gray78",
"; c gray79",
": c #CBCBCB",
"> c #D5D5D5",
", c gray85",
"< c #EEEEEE",
/* pixels */
"<<<<<<<<<<<<<<<<<<<<<<<<",
",,,,,,,,,,,,,,,,,,,,,,,,",
",,,,,,,,,,,,,,,,,,,,,,,,",
",,,,,,,,,,,,,,,,,,,,,,,,",
",,,,,,,,,,,,,,,,,,,,,,,,",
",,,,,,,,,,,,,,,,,,,,,,,,",
",,,,,,,,,,,,,,,,,,,,,,,,",
",,,,,,,,,,,,,,,,,,,,,,,,",
",,,,,,,,,,>%$>,,,,,,,,,,",
",,,,,,,,,;O  o-,,,,,,,,,",
",,,,,,,,=.X  X.=,,,,,,,,",
",,,,,,,,&+:  :+*,,,,,,,,",
",,,,,,,,,,,  ,,,,,,,,,,,",
",,,,,,,,,,,  ,,,,,,,,,,,",
",,,,,,,,,,,  ,,,,,,,,,,,",
",,,,,,,,,,,@#,,,,,,,,,,,",
",,,,,,,,,,,,,,,,,,,,,,,,",
",,,,,,,,,,,,,,,,,,,,,,,,",
",,,,,,,,,,,,,,,,,,,,,,,,",
",,,,,,,,,,,,,,,,,,,,,,,,",
",,,,,,,,,,,,,,,,,,,,,,,,",
",,,,,,,,,,,,,,,,,,,,,,,,",
",,,,,,,,,,,,,,,,,,,,,,,,",
",,,,,,,,,,,,,,,,,,,,,,,,"
};
