/* XPM */
static char *shade_toggled_active[] = {
/* columns rows colors chars-per-pixel */
"24 24 18 1 ",
"  c #909090",
". c gray57",
"X c #929292",
"o c gray60",
"O c #9A9A9A",
"+ c gray61",
"@ c #A0A0A0",
"# c gray63",
"$ c #AAAAAA",
"% c #ACACAC",
"& c #B9B9B9",
"* c gray73",
"= c gray78",
"- c gray79",
"; c #CBCBCB",
": c gray83",
"> c gray85",
", c #EEEEEE",
/* pixels */
",,,,,,,,,,,,,,,,,,,,,,,,",
">>>>>>>>>>>>>>>>>>>>>>>>",
">>>>>>>>>>>>>>>>>>>>>>>>",
">>>>>>>>>>>>>>>>>>>>>>>>",
">>>>>>>>>>>>>>>>>>>>>>>>",
">>>>>>>>>>>>>>>>>>>>>>>>",
">>>>>>>>>>>>>>>>>>>>>>>>",
">>>>>>>>>>>>>>>>>>>>>>>>",
">>>>>>>>>>>@#>>>>>>>>>>>",
">>>>>>>>>>>  >>>>>>>>>>>",
">>>>>>>>>>>  >>>>>>>>>>>",
">>>>>>>>>>>  >>>>>>>>>>>",
">>>>>>>>%+;  ;+%>>>>>>>>",
">>>>>>>>&.X  X.*>>>>>>>>",
">>>>>>>>>-O  o=>>>>>>>>>",
">>>>>>>>>>:$$:>>>>>>>>>>",
">>>>>>>>>>>>>>>>>>>>>>>>",
">>>>>>>>>>>>>>>>>>>>>>>>",
">>>>>>>>>>>>>>>>>>>>>>>>",
">>>>>>>>>>>>>>>>>>>>>>>>",
">>>>>>>>>>>>>>>>>>>>>>>>",
">>>>>>>>>>>>>>>>>>>>>>>>",
">>>>>>>>>>>>>>>>>>>>>>>>",
">>>>>>>>>>>>>>>>>>>>>>>>"
};
