/* XPM */
static char *shade_toggled_inactive[] = {
/* columns rows colors chars-per-pixel */
"24 24 15 1 ",
"  c #B6B6B6",
". c #B7B7B7",
"X c #BBBBBB",
"o c #BCBCBC",
"O c gray",
"+ c gray76",
"@ c #C3C3C3",
"# c gray77",
"$ c #CACACA",
"% c #D0D0D0",
"& c gray82",
"* c #D2D2D2",
"= c #D7D7D7",
"- c gray85",
"; c #EEEEEE",
/* pixels */
";;;;;;;;;;;;;;;;;;;;;;;;",
"------------------------",
"------------------------",
"------------------------",
"------------------------",
"------------------------",
"------------------------",
"------------------------",
"-----------OO-----------",
"-----------  -----------",
"-----------  -----------",
"-----------  -----------",
"--------#o*  *o@--------",
"--------$..  ..$--------",
"---------&X  X%---------",
"----------=++=----------",
"------------------------",
"------------------------",
"------------------------",
"------------------------",
"------------------------",
"------------------------",
"------------------------",
"------------------------"
};
