/* XPM */
static char *shade_prelight[] = {
/* columns rows colors chars-per-pixel */
"24 24 34 1 ",
"  c gray48",
". c #7C7C7C",
"X c #7E7E7E",
"o c gray54",
"O c gray55",
"+ c #909090",
"@ c gray60",
"# c #9A9A9A",
"$ c gray65",
"% c gray67",
"& c gray68",
"* c #AEAEAE",
"= c gray77",
"- c #C5C5C5",
"; c gray82",
": c #D2D2D2",
"> c LightGray",
", c gray83",
"< c #D5D5D5",
"1 c gray84",
"2 c #D8D8D8",
"3 c gray85",
"4 c #DFDFDF",
"5 c #E2E2E2",
"6 c gray89",
"7 c gray90",
"8 c #EEEEEE",
"9 c #F4F4F4",
"0 c gray96",
"q c #F6F6F6",
"w c #F8F8F8",
"e c gray99",
"r c #FDFDFD",
"t c white",
/* pixels */
"888888888888888888888888",
"333333333333333333333333",
"333333333333333333333333",
"333333333333333333333333",
"333333333333333333333333",
"333333332<,;;,<233333333",
"33333331:60rr06:13333333",
"3333331>qttttttq>1333333",
"333332:qttw%$qttq:233333",
"33333<6tt5O  o4tt6<33333",
"33333,0t=.X  X.-t0,33333",
"33333;rt&+7  7+*tr;33333",
"33333;rtttt  tttte:33333",
"33333,0tttt  tttt9,33333",
"33333<6tttt  tttt6<33333",
"333332:qttt@#tttq:233333",
"3333331>qttttttq>1333333",
"33333331:69rr96:13333333",
"333333332<,;;,<233333333",
"333333333333333333333333",
"333333333333333333333333",
"333333333333333333333333",
"333333333333333333333333",
"333333333333333333333333"
};
