/* XPM */
static char *shade_toggled_prelight[] = {
/* columns rows colors chars-per-pixel */
"24 24 33 1 ",
"  c gray48",
". c #7C7C7C",
"X c #7E7E7E",
"o c gray54",
"O c gray55",
"+ c gray56",
"@ c #909090",
"# c #989898",
"$ c gray60",
"% c #A9A9A9",
"& c gray68",
"* c gray77",
"= c #C5C5C5",
"- c gray82",
"; c #D2D2D2",
": c LightGray",
"> c gray83",
", c #D5D5D5",
"< c gray84",
"1 c #D8D8D8",
"2 c gray85",
"3 c #DFDFDF",
"4 c #E2E2E2",
"5 c gray89",
"6 c gray90",
"7 c #EEEEEE",
"8 c #F4F4F4",
"9 c gray96",
"0 c #F6F6F6",
"q c gray97",
"w c gray99",
"e c #FDFDFD",
"r c white",
/* pixels */
"777777777777777777777777",
"222222222222222222222222",
"222222222222222222222222",
"222222222222222222222222",
"222222222222222222222222",
"222222221,>-->,122222222",
"2222222<;59ee95;<2222222",
"222222<:0rrrrrr0:<222222",
"222221;0rrr#$rrr0;122222",
"22222,5rrrr  rrrr5,22222",
"22222>9rrrr  rrrr9>22222",
"22222-errrr  rrrre-22222",
"22222-er&@6  6+&rw;22222",
"22222>9r*.X  X.=r8>22222",
"22222,5rr4O  o3rr5,22222",
"222221;0rrq%%qrr0;122222",
"222222<:0rrrrrr0:<222222",
"2222222<;58ee85;<2222222",
"222222221,>-->,122222222",
"222222222222222222222222",
"222222222222222222222222",
"222222222222222222222222",
"222222222222222222222222",
"222222222222222222222222"
};
