/* XPM */
static char *stick_inactive[] = {
/* columns rows colors chars-per-pixel */
"24 24 20 1 ",
"  c #B1B1B1",
". c #B2B2B2",
"X c gray70",
"o c #B4B4B4",
"O c gray71",
"+ c gray72",
"@ c #C1C1C1",
"# c gray76",
"$ c gray77",
"% c #CBCBCB",
"& c gray80",
"* c gray81",
"= c #D0D0D0",
"- c gray82",
"; c #D5D5D5",
": c gray84",
"> c #D7D7D7",
", c #D8D8D8",
"< c gray85",
"1 c #EEEEEE",
/* pixels */
"111111111111111111111111",
"<<<<<<<<<<<<<<<<<<<<<<<<",
"<<<<<<<<<<<<<<<<<<<<<<<<",
"<<<<<<<<<<<<<<<<<<<<<<<<",
"<<<<<<<<<<<<<<<<<<<<<<<<",
"<<<<<<<<;$+  +$;<<<<<<<<",
"<<<<<<<&X#=,,=#X%<<<<<<<",
"<<<<<<&O-<<<<<<-O%<<<<<<",
"<<<<<;X-<<<<<<<<-o;<<<<<",
"<<<<<$#<<<<<<<<<<@$<<<<<",
"<<<<<+=<<<<<<<<<<=+<<<<<",
"<<<<<.><<<<<<<<<<>.<<<<<",
"<<<<<.><<<<<<<<<<>.<<<<<",
"<<<<<+=<<<<<<<<<<*+<<<<<",
"<<<<<$#<<<<<<<<<<@$<<<<<",
"<<<<<;o-<<<<<<<<-o:<<<<<",
"<<<<<<%O-<<<<<<-O&<<<<<<",
"<<<<<<<%o@*>>=@o&<<<<<<<",
"<<<<<<<<;$+..+$:<<<<<<<<",
"<<<<<<<<<<<<<<<<<<<<<<<<",
"<<<<<<<<<<<<<<<<<<<<<<<<",
"<<<<<<<<<<<<<<<<<<<<<<<<",
"<<<<<<<<<<<<<<<<<<<<<<<<",
"<<<<<<<<<<<<<<<<<<<<<<<<"
};
