/* XPM */
static char *stick_toggled_inactive[] = {
/* columns rows colors chars-per-pixel */
"24 24 22 1 ",
"  c #B1B1B1",
". c #B2B2B2",
"X c gray70",
"o c #B4B4B4",
"O c gray71",
"+ c #B6B6B6",
"@ c gray72",
"# c #C1C1C1",
"$ c gray76",
"% c gray77",
"& c #CBCBCB",
"* c gray80",
"= c gray81",
"- c #D0D0D0",
"; c gray82",
": c gray83",
"> c #D5D5D5",
", c gray84",
"< c #D7D7D7",
"1 c #D8D8D8",
"2 c gray85",
"3 c #EEEEEE",
/* pixels */
"333333333333333333333333",
"222222222222222222222222",
"222222222222222222222222",
"222222222222222222222222",
"222222222222222222222222",
"22222222>%@  @%>22222222",
"2222222*X$-11-$X&2222222",
"222222*O;222222;O&222222",
"22222>X;2>$@@#:2;o>22222",
"22222%$2>@++++@>2#%22222",
"22222@-2$++++++#2-@22222",
"22222.<2@++++++@2<.22222",
"22222.<2@++++++@2<.22222",
"22222@-2#++++++$2=@22222",
"22222%$2:@++++@>2#%22222",
"22222>o;2>#@@$>2;o,22222",
"222222&O;222222;O*222222",
"2222222&o#=<<-#o*2222222",
"22222222>%@..@%,22222222",
"222222222222222222222222",
"222222222222222222222222",
"222222222222222222222222",
"222222222222222222222222",
"222222222222222222222222"
};
