/* XPM */
static char *stick_toggled_active[] = {
/* columns rows colors chars-per-pixel */
"24 24 33 1 ",
"  c #909090",
". c #939393",
"X c gray58",
"o c #959595",
"O c gray59",
"+ c #989898",
"@ c gray60",
"# c #9D9D9D",
"$ c gray62",
"% c #9F9F9F",
"& c #A7A7A7",
"* c gray66",
"= c #AEAEAE",
"- c #AFAFAF",
"; c gray69",
": c gray70",
"> c #B4B4B4",
", c #C1C1C1",
"< c gray76",
"1 c #C8C8C8",
"2 c gray79",
"3 c #CACACA",
"4 c #CBCBCB",
"5 c gray80",
"6 c #CECECE",
"7 c #D0D0D0",
"8 c gray82",
"9 c #D2D2D2",
"0 c LightGray",
"q c #D5D5D5",
"w c gray84",
"e c gray85",
"r c #EEEEEE",
/* pixels */
"rrrrrrrrrrrrrrrrrrrrrrrr",
"eeeeeeeeeeeeeeeeeeeeeeee",
"eeeeeeeeeeeeeeeeeeeeeeee",
"eeeeeeeeeeeeeeeeeeeeeeee",
"eeeeeeeeeeeeeeeeeeeeeeee",
"eeeeeeee9>$..$>0eeeeeeee",
"eeeeeee,O;2ww2-O,eeeeeee",
"eeeeee,@5eeeeee4+,eeeeee",
"eeeee9O5e7*XX&6e4O0eeeee",
"eeeee>;e7o    X7e-:eeeee",
"eeeee#2e*      *e2$eeeee",
"eeeee.weX      XewXeeeee",
"eeeeeXweX      oeqXeeeee",
"eeeee$2e&      *e1$eeeee",
"eeeee>-e6X    o8e->eeeee",
"eeeee0O4e7*XX*8e3O0eeeee",
"eeeeee,+4eeeeee3+<eeeeee",
"eeeeeee,O-1ww2=O<eeeeeee",
"eeeeeeee0:%..%>0eeeeeeee",
"eeeeeeeeeeeeeeeeeeeeeeee",
"eeeeeeeeeeeeeeeeeeeeeeee",
"eeeeeeeeeeeeeeeeeeeeeeee",
"eeeeeeeeeeeeeeeeeeeeeeee",
"eeeeeeeeeeeeeeeeeeeeeeee"
};
