/* XPM */
static char *stick_active[] = {
/* columns rows colors chars-per-pixel */
"24 24 26 1 ",
"  c #939393",
". c gray58",
"X c gray59",
"o c #989898",
"O c gray60",
"+ c #9D9D9D",
"@ c gray62",
"# c #9F9F9F",
"$ c #AEAEAE",
"% c #AFAFAF",
"& c gray69",
"* c gray70",
"= c #B4B4B4",
"- c #C1C1C1",
"; c gray76",
": c #C8C8C8",
"> c gray79",
", c #CACACA",
"< c #CBCBCB",
"1 c gray80",
"2 c #D2D2D2",
"3 c LightGray",
"4 c #D5D5D5",
"5 c gray84",
"6 c gray85",
"7 c #EEEEEE",
/* pixels */
"777777777777777777777777",
"666666666666666666666666",
"666666666666666666666666",
"666666666666666666666666",
"666666666666666666666666",
"666666662=@  @=366666666",
"6666666-X&>55>%X-6666666",
"666666-O1666666<o-666666",
"666662X166666666<X366666",
"66666=&6666666666%*66666",
"66666+>6666666666>@66666",
"66666 566666666665.66666",
"66666.566666666664.66666",
"66666@>6666666666:@66666",
"66666=%6666666666%=66666",
"666663X<66666666,X366666",
"666666-o<666666,o;666666",
"6666666-X%:55>$X;6666666",
"666666663*#  #=366666666",
"666666666666666666666666",
"666666666666666666666666",
"666666666666666666666666",
"666666666666666666666666",
"666666666666666666666666"
};
