/* XPM */
static char *stick_toggled_prelight[] = {
/* columns rows colors chars-per-pixel */
"24 24 31 1 ",
"  c gray48",
". c #818181",
"X c gray51",
"o c #838383",
"O c #848484",
"+ c #A4A4A4",
"@ c #A5A5A5",
"# c gray65",
"$ c #A7A7A7",
"% c #B2B2B2",
"& c gray70",
"* c #B4B4B4",
"= c gray71",
"- c #B7B7B7",
"; c gray73",
": c gray77",
"> c #C5C5C5",
", c #CBCBCB",
"< c gray80",
"1 c #D0D0D0",
"2 c gray82",
"3 c #D5D5D5",
"4 c gray84",
"5 c gray85",
"6 c gray92",
"7 c gray93",
"8 c #EEEEEE",
"9 c gray94",
"0 c #FBFBFB",
"q c gray99",
"w c white",
/* pixels */
"888888888888888888888888",
"555555555555555555555555",
"555555555555555555555555",
"555555555555555555555555",
"555555555555555555555555",
"555555553:;%%;:355555555",
"5555555<*28qq82*,5555555",
"555555<-9wwwwww9-,555555",
"555553*9w9@..+6w9=355555",
"55555:2w9o    o9w1>55555",
"55555;8w@      #w8;55555",
"55555&0w.      .w0&55555",
"55555&0w.      Xw0&55555",
"55555;8w+      $w7;55555",
"55555:2w6o    O9w1>55555",
"555553=9w9#..$9w9=455555",
"555555,-9wwwwww9-<555555",
"5555555,=170071=<5555555",
"555555553>;&&;>455555555",
"555555555555555555555555",
"555555555555555555555555",
"555555555555555555555555",
"555555555555555555555555",
"555555555555555555555555"
};
