/* XPM */
static char *stick_prelight[] = {
/* columns rows colors chars-per-pixel */
"24 24 21 1 ",
"  c #B2B2B2",
". c gray70",
"X c #B4B4B4",
"o c gray71",
"O c #B7B7B7",
"+ c gray73",
"@ c gray77",
"# c #C5C5C5",
"$ c #CBCBCB",
"% c gray80",
"& c #D0D0D0",
"* c gray82",
"= c #D5D5D5",
"- c gray84",
"; c gray85",
": c gray93",
"> c #EEEEEE",
", c gray94",
"< c #FBFBFB",
"1 c gray99",
"2 c white",
/* pixels */
">>>>>>>>>>>>>>>>>>>>>>>>",
";;;;;;;;;;;;;;;;;;;;;;;;",
";;;;;;;;;;;;;;;;;;;;;;;;",
";;;;;;;;;;;;;;;;;;;;;;;;",
";;;;;;;;;;;;;;;;;;;;;;;;",
";;;;;;;;=@+  +@=;;;;;;;;",
";;;;;;;%X*>11>*X$;;;;;;;",
";;;;;;%O,222222,O$;;;;;;",
";;;;;=X,22222222,o=;;;;;",
";;;;;@*2222222222&#;;;;;",
";;;;;+>2222222222>+;;;;;",
";;;;;.<2222222222<.;;;;;",
";;;;;.<2222222222<.;;;;;",
";;;;;+>2222222222:+;;;;;",
";;;;;@*2222222222&#;;;;;",
";;;;;=o,22222222,o-;;;;;",
";;;;;;$O,222222,O%;;;;;;",
";;;;;;;$o&:<<:&o%;;;;;;;",
";;;;;;;;=#+..+#-;;;;;;;;",
";;;;;;;;;;;;;;;;;;;;;;;;",
";;;;;;;;;;;;;;;;;;;;;;;;",
";;;;;;;;;;;;;;;;;;;;;;;;",
";;;;;;;;;;;;;;;;;;;;;;;;",
";;;;;;;;;;;;;;;;;;;;;;;;"
};
