/* XPM */
static char *title_3_active[] = {
/* columns rows colors chars-per-pixel */
"24 24 2 1 ",
"  c gray85",
". c #EEEEEE",
/* pixels */
"........................",
"                        ",
"                        ",
"                        ",
"                        ",
"                        ",
"                        ",
"                        ",
"                        ",
"                        ",
"                        ",
"                        ",
"                        ",
"                        ",
"                        ",
"                        ",
"                        ",
"                        ",
"                        ",
"                        ",
"                        ",
"                        ",
"                        ",
"                        "
};
