/* XPM */
static char *top_left_active[] = {
/* columns rows colors chars-per-pixel */
"5 24 4 1 ",
"  c gray75",
". c gray85",
"X c #EEEEEE",
"o c None",
/* pixels */
"oXXXX",
"X....",
" ....",
" ....",
" ....",
" ....",
" ....",
" ....",
" ....",
" ....",
" ....",
" ....",
" ....",
" ....",
" ....",
" ....",
" ....",
" ....",
" ....",
" ....",
" ....",
" ....",
" ....",
" ...."
};
