<?xml version="1.0" encoding="UTF-8" standalone="no"?>
<svg xmlns="http://www.w3.org/2000/svg" version="1.1" width="60" height="40">
  <defs><style type="text/css"><![CDATA[
#forms {
  fill: none;
  stroke: #000000;
  stroke-width: 0.1;
}
.null {
  fill: none;
}
.face {
  fill: #808080;
}
.border {
  fill: none;
  stroke: #808080;
}
  ]]></style></defs>
  <g id="button-bg">
    <rect id="n1" x="2" y="2" width="16" height="16" class="null" />
    <circle r="7" cx="10" cy="10" class="face" />
  </g>
  <g id="button-border" transform="translate(20,0)">
    <rect id="n1" x="2" y="2" width="16" height="16" class="null" />
    <circle r="6.5" cx="10" cy="10" class="border" />
  </g>
  <g id="close-icon" transform="translate(0,20)">
    <rect id="n1" x="2" y="2" width="16" height="16" class="null" />
    <path d="M 7,7 C 7.5,7 8,7 8.25,7.25 L 10,9 11.75,7.25 C 12,7 12.5,7 13,7 13,7.5 13,8 12.75,8.25 L 11,10 12.75,11.75 C 13,12 13,12.5 13,13 12.5,13 12,13 11.75,12.75 L 10,11 8.25,12.75 C 8,13 7.5,13 7,13 7,12.5 7,12.025 7.25,11.75 L 9,10 7.25,8.25 C 7,8 7,7.5 7,7 Z" class="face" />
  </g>
  <g id="max-icon" transform="translate(20,20)">
    <rect id="n1" x="2" y="2" width="16" height="16" class="null" />
    <path d="M 8.8,7 12.2,7 C 12.6,7 13,7.4 13,7.8 L 13,11.2 Z M 11.2,13 7.8,13 C 7.4,13 7,12.6 7,12.2 L 7,8.8 Z" class="face" />
  </g>
  <g id="min-icon" transform="translate(40,20)">
    <rect id="n1" x="2" y="2" width="16" height="16" class="null" />
    <rect x="7" y="9" width="6" height="2" class="face" />
  </g>
</svg>
