<?xml version="1.0" encoding="UTF-8" standalone="no"?>
<svg 
  xmlns="http://www.w3.org/2000/svg" version="1.1" viewBox="2 22 16 16" width="16" height="16">
  <g id="close-icon" transform="translate(0,20)">
    <rect id="n1" x="2" y="2" width="16" height="16" class="null" style="fill: none;"/>
    <path d="M 7,7 C 7.5,7 8,7 8.25,7.25 L 10,9 11.75,7.25 C 12,7 12.5,7 13,7 13,7.5 13,8 12.75,8.25 L 11,10 12.75,11.75 C 13,12 13,12.5 13,13 12.5,13 12,13 11.75,12.75 L 10,11 8.25,12.75 C 8,13 7.5,13 7,13 7,12.5 7,12.025 7.25,11.75 L 9,10 7.25,8.25 C 7,8 7,7.5 7,7 Z" class="face" style="fill: #808080;"/>
  </g>
</svg>
