<?xml version="1.0" encoding="UTF-8" standalone="no"?>
<svg 
  xmlns="http://www.w3.org/2000/svg" 
  xmlns:xlink="http://www.w3.org/1999/xlink" 
  xmlns:sodipodi="http://sodipodi.sourceforge.net/DTD/sodipodi-0.dtd" 
  xmlns:inkscape="http://www.inkscape.org/namespaces/inkscape" version="1.1" viewBox="5 62 50 20" width="50" height="20">
  <!-- Do not change style by hand, instead edit sass/_assets-variant.scss and then
       execute grunt cinnamon_assets -->
  <g id="forms" inkscape:groupmode="layer" inkscape:label="Forms - edit here" transform="translate(130,0)" style="fill: none; stroke: #000000; stroke-width: 0.1;">
    <g id="switch-form" transform="translate(0,60)">
      <rect id="f13" x="5" y="2" width="50" height="20" rx="10" ry="10"/>
      <circle id="f14" r="9" cx="15" cy="12"/>
      <path id="t15" d="M 42,9 C 42.5,9 43,9 43.25,9.25 L 45,11 46.75,9.25 C 47,9 47.5,9 48,9 48,9.5 48,10 47.75,10.25 L 46,12 47.75,13.75 C 48,14 48,14.5 48,15 47.5,15 47,15 46.75,14.75 L 45,13 43.25,14.75 C 43,15 42.5,15 42,15 42,14.5 42,14.025 42.25,13.75 L 44,12 42.25,10.25 C 42,10 42,9.5 42,9 Z"/>
    </g>
  </g>
  <g id="assets" inkscape:groupmode="layer" inkscape:label="Assets" sodipodi:insensitive="true">
    <g class="switch" transform="translate(0,60)">
      <g id="switch-off" class="unchecked">
        <use xlink:href="#f13" class="face" style="fill: #cfcfcf;"/>
        <use xlink:href="#f14" class="face2" style="fill: #ffffff;"/>
        <use xlink:href="#t15" class="trim" style="fill: #8a8a8a; stroke-width: 1;"/>
      </g>
    </g>
  </g>
</svg>
