<?xml version="1.0" encoding="UTF-8" standalone="no"?>
<svg xmlns="http://www.w3.org/2000/svg" xmlns:xlink="http://www.w3.org/1999/xlink" version="1.1" width="200" height="200">
  <!-- Do not change style by hand, instead edit sass/_assets-variant.scss and then
       execute grunt cinnamon_assets -->
  <defs><style type="text/css"><![CDATA[
#forms {
  fill: none;
  stroke: #000000;
  stroke-width: 0.1; }

#forms use {
  stroke: #aaaaff; }

#assets > rect {
  fill: #f0f0f0; }

.null {
  fill: none; }

.shadow {
  stroke: #000000;
  opacity: 0.75; }

.border, .trim, .trim2, .shadow {
  fill: none;
  stroke-width: 1; }

.shadow1 {
  opacity: 0.01; }

.shadow2 {
  opacity: 0.02; }

.shadow3 {
  opacity: 0.04; }

.shadow4 {
  opacity: 0.06; }

.shadow5 {
  opacity: 0.09; }

.checkbox .face {
  fill: #ffffff;
  stroke: #cfcfcf; }

.checkbox .active .face {
  stroke: #9ab87c; }

.checkbox .checked .face {
  fill: #9ab87c;
  stroke: #9ab87c; }

.checkbox .checked .trim {
  fill: #ffffff; }

.menu .face {
  fill: #ffffff; }

.menu .border {
  stroke: #000000;
  opacity: 0.1; }

.menu .hover .face {
  fill: #000000;
  opacity: 0.04; }

.menu .hover .border {
  stroke: #000000;
  opacity: 0.09; }

.menu .submenu .face {
  fill: #000000;
  opacity: 0.05; }

.menu .submenu .border {
  stroke: #000000;
  opacity: 0.1; }

.switch .face {
  fill: #cfcfcf; }

.switch .face2 {
  fill: #ffffff; }

.switch .trim {
  fill: #8a8a8a; }

.switch .checked .face {
  fill: #9ab87c; }

.switch .checked .trim {
  fill: #ffffff; }

#button-box .face {
  opacity: 0.95;
  fill: #353945; }

#button-box .border {
  stroke: #000000;
  opacity: 0; }

#message .face {
  fill: #fcfcfd;
  opacity: 1; }

#message .border {
  stroke: #cfd6e6;
  opacity: 1; }

#message .trim {
  fill: #9ab87c; }

#message .trim2 {
  stroke: #88a66b; }

#modal .face {
  fill: #f5f6f8; }

#modal .border {
  stroke: #000000;
  opacity: 0.1; }

]]></style>
    <clipPath id="cp7" clipPathUnits="userSpaceOnUse">
      <rect x="9" y="12" width="22" height="19"/>
    </clipPath>
    <clipPath id="cp8" clipPathUnits="userSpaceOnUse">
      <rect width="22" height="13" x="9" y="9"/>
    </clipPath>
  </defs>
  <g id="forms" inkscape:groupmode="layer" inkscape:label="Forms - edit here" transform="translate(130,0)">
    <g id="bg-form">
      <path id="s5" d="M 9.648,30.31 C 10.373,31.04 11.38,31.5 12.5,31.5 L 27.5,31.5 C 28.62,31.5 29.627,31.04 30.352,30.31 30.093,30.43 29.807,30.5 29.5,30.5 L 10.5,30.5 C 10.194,30.5 9.908,30.43 9.648,30.31 Z"/>
    </g>
    <g id="checkbox-form" transform="translate(0,40)">
      <rect id="n7" x="2" y="2" width="16" height="16"/>
      <rect id="f12" x="3.5" y="3.5" width="13" height="13" rx="2" ry="2"/>
      <path id="t8" d="M 5.654,9.646 C 5.458,9.842 5.458,10.158 5.654,10.354 L 8.836,13.536 14.493,7.879 13.079,6.464 8.836,10.707 7.068,8.939 C 6.872,8.743 6.557,8.743 6.361,8.939 Z"/>
    </g>
    <g id="switch-form" transform="translate(0,60)">
      <rect id="f13" x="5" y="2" width="50" height="20" rx="10" ry="10"/>
      <circle id="f14" r="9" cx="15" cy="12"/>
      <path id="t15" d="M 42,9 C 42.5,9 43,9 43.25,9.25 L 45,11 46.75,9.25 C 47,9 47.5,9 48,9 48,9.5 48,10 47.75,10.25 L 46,12 47.75,13.75 C 48,14 48,14.5 48,15 47.5,15 47,15 46.75,14.75 L 45,13 43.25,14.75 C 43,15 42.5,15 42,15 42,14.5 42,14.025 42.25,13.75 L 44,12 42.25,10.25 C 42,10 42,9.5 42,9 Z"/>
      <use xlink:href="#t8" x="5" y="2"/>
    </g>
  </g>
  <g id="assets" inkscape:groupmode="layer" inkscape:label="Assets" sodipodi:insensitive="true">
    <rect x="0" y="0" width="120" height="200"/>
    <g class="checkbox">
      <g id="checkbox-checked" class="checked">
        <use xlink:href="#n7" class="null"/>
        <use xlink:href="#f12" class="face"/>
        <use xlink:href="#t8" class="trim"/>
      </g>
      <g id="checkbox-checked-focused" class="checked active" transform="translate(20,0)">
        <use xlink:href="#n7" class="null"/>
        <use xlink:href="#f12" class="face"/>
        <use xlink:href="#t8" class="trim"/>
      </g>
      <g id="checkbox-unchecked" class="unchecked" transform="translate(40,0)">
        <use xlink:href="#n7" class="null"/>
        <use xlink:href="#f12" class="face"/>
      </g>
      <g id="checkbox-unchecked-focused" class="unchecked active" transform="translate(60,0)">
        <use xlink:href="#n7" class="null"/>
        <use xlink:href="#f12" class="face"/>
      </g>
    </g>
    <g class="menu">
      <g id="menu" transform="translate(0,20)">
        <rect id="f3" width="22" height="21" x="9" y="9" rx="1.5" ry="1.5" class="face"/>
        <rect id="f4" width="23" height="22" x="8.5" y="8.5" rx="2" ry="2" class="border"/>
        <g class="shadow">
          <rect id="s1" width="31" height="31" x="4.5" y="4.5" rx="8" ry="8" class="shadow1"/>
          <rect id="s2" width="29" height="29" x="5.5" y="5.5" rx="7" ry="7" class="shadow2"/>
          <rect id="s3" width="27" height="27" x="6.5" y="6.5" rx="6" ry="6" class="shadow3"/>
          <rect id="s4" width="25" height="25" x="7.5" y="7.5" rx="5" ry="5" class="shadow4"/>
          <use xlink:href="#s5" class="shadow5"/>
        </g>
      </g>
      <g id="menu-hover" class="hover" transform="translate(40,20)">
        <rect x="4" y="3" width="32" height="33" class="null"/>
        <rect x="8" y="4" width="24" height="31" class="face"/>
        <path d="M 8,3.5 32,3.5 M 8,35.5 32,35.5" class="border"/>
      </g>
      <g id="submenu" class="submenu" transform="translate(80,20)">
        <rect x="1" y="11" width="37" height="18" class="null"/>
        <rect x="5" y="11" width="29" height="18" class="face"/>
        <path d="M 5,11.5 34,11.5 M 5,28.5 34,28.5" class="border"/>
      </g>
    </g>
    <g class="switch" transform="translate(0,60)">
      <g id="switch-off" class="unchecked">
        <use xlink:href="#f13" class="face"/>
        <use xlink:href="#f14" class="face2"/>
        <use xlink:href="#t15" class="trim"/>
      </g>
      <g id="switch-on" class="checked" transform="translate(60,0)">
        <use xlink:href="#f13" class="face"/>
        <use xlink:href="#f14" class="face2" x="30" y="0"/>
        <use xlink:href="#t8" x="5" y="2" class="trim"/>
      </g>
    </g>
    <g class="misc" transform="translate(0,100)">
      <g id="button-box" class="button" clip-path="url(#cp7)">
        <rect x="9" y="9" width="22" height="22" rx="2" ry="2" class="face"/>
        <path d="M 9 12.5 31 12.5" class="border"/>
      </g>
      <g id="message" transform="translate(40,0)">
        <rect x="5" y="5" width="30" height="30" rx="1" ry="1" class="face"/>
        <rect x="4.5" y="4.5" width="31" height="31" rx="1.5" ry="1.5" class="border"/>
        <path d="M 7,35 6,35 A 1,1 0 0 1 5,34 L 5,6 A 1,1 0 0 1 6,5 L 7,5 Z" class="trim"/>
        <path d="M 7.5,35.5 6,35.5 A 1.5,1.5 0 0 1 4.5,34 L 4.5,6 A 1.5,1.5 0 0 1 6,4.5 L 7.5,4.5 Z" class="trim2"/>
      </g>
      <g id="modal" transform="translate(80,0)">
        <rect x="9" y="9" width="22" height="21" rx="1.5" class="face" clip-path="url(#cp8)" ry="1.5"/>
        <rect x="8.5" y="8.5" width="23" height="74" rx="2" ry="2" class="border"/>
        <g class="shadow">
          <rect x="4.5" y="4.5" width="31" height="83" rx="8" ry="8" class="shadow1"/>
          <rect x="5.5" y="5.5" width="29" height="81" rx="7" ry="7" class="shadow2"/>
          <rect x="6.5" y="6.5" width="27" height="79" rx="6" ry="6" class="shadow3"/>
          <rect x="7.5" y="7.5" width="25" height="77" rx="5" ry="5" class="shadow4"/>
          <use xlink:href="#s5" y="52" class="shadow5"/>
        </g>
      </g>
    </g>
  </g>
</svg>
